<?xml version="1.0" encoding="UTF-8" standalone="no"?>
<!-- Generator: Adobe Illustrator 19.0.0, SVG Export Plug-In . SVG Version: 6.00 Build 0)  -->

<svg
   xmlns:dc="http://purl.org/dc/elements/1.1/"
   xmlns:cc="http://creativecommons.org/ns#"
   xmlns:rdf="http://www.w3.org/1999/02/22-rdf-syntax-ns#"
   xmlns:svg="http://www.w3.org/2000/svg"
   xmlns="http://www.w3.org/2000/svg"
   xmlns:sodipodi="http://sodipodi.sourceforge.net/DTD/sodipodi-0.dtd"
   xmlns:inkscape="http://www.inkscape.org/namespaces/inkscape"
   version="1.1"
   id="Capa_1"
   x="0px"
   y="0px"
   viewBox="0 0 512 512"
   style="enable-background:new 0 0 512 512;"
   xml:space="preserve"
   sodipodi:docname="bandeja.svg"
   inkscape:version="0.92.2 (unknown)"
   inkscape:export-filename="/srv/vcs/github/class-jam/class-jam/src/components/componentIcons/menu.png"
   inkscape:export-xdpi="48"
   inkscape:export-ydpi="48"><metadata
     id="metadata91"><rdf:RDF><cc:Work
         rdf:about=""><dc:format>image/svg+xml</dc:format><dc:type
           rdf:resource="http://purl.org/dc/dcmitype/StillImage" /><dc:title></dc:title></cc:Work></rdf:RDF></metadata><defs
     id="defs89" /><sodipodi:namedview
     pagecolor="#ffffff"
     bordercolor="#666666"
     borderopacity="1"
     objecttolerance="10"
     gridtolerance="10"
     guidetolerance="10"
     inkscape:pageopacity="0"
     inkscape:pageshadow="2"
     inkscape:window-width="1280"
     inkscape:window-height="967"
     id="namedview87"
     showgrid="false"
     inkscape:zoom="0.4609375"
     inkscape:cx="256"
     inkscape:cy="264.67797"
     inkscape:window-x="0"
     inkscape:window-y="27"
     inkscape:window-maximized="1"
     inkscape:current-layer="Capa_1" /><path
     d="M 230.40039 0 L 230.40039 17.066406 L 247.4668 17.066406 L 247.4668 42.847656 C 129.07309 47.34975 34.132813 145.05787 34.132812 264.5332 L 8.5332031 264.5332 C 3.8232031 264.5332 -1.1842379e-15 268.34741 0 273.06641 C 0 305.99641 26.794422 332.79883 59.732422 332.79883 L 121.53711 332.79883 L 98.855469 351.67578 C 97.407468 350.54497 95.590253 349.86719 93.611328 349.86719 L 0 349.86719 L 0 366.93359 L 85.076172 366.93359 L 85.076172 494.93359 L 0 494.93359 L 0 512 L 93.611328 512 C 98.321328 512 102.14453 508.1858 102.14453 503.4668 L 102.14453 477.86719 L 305.58789 477.86719 C 319.44589 477.85019 332.94628 472.97067 343.61328 464.13867 L 447.0625 378.66016 C 461.1155 368.64816 465.19452 349.21048 456.35352 334.39648 C 456.00271 333.80968 455.6388 333.25365 455.27148 332.72266 C 486.81095 331.15062 511.99805 304.98831 511.99805 273.06641 C 511.99905 268.34841 508.1858 264.5332 503.4668 264.5332 L 477.86523 264.5332 C 477.86621 145.05656 382.93446 47.349202 264.5332 42.847656 L 264.5332 17.066406 L 281.59961 17.066406 L 281.59961 0 L 230.40039 0 z M 256 59.732422 C 368.922 59.732422 460.80078 151.6112 460.80078 264.5332 L 51.199219 264.5332 C 51.199219 151.6112 143.078 59.732422 256 59.732422 z M 256 76.800781 C 208.077 76.826781 162.44925 94.933719 127.53125 127.76172 L 139.22266 140.19336 C 170.96666 110.34336 212.44677 93.892187 256.00977 93.867188 L 256 76.800781 z M 115.64453 140.00586 C 109.67953 146.71286 104.14998 153.88966 99.208984 161.34766 L 113.43359 170.77734 C 117.93959 163.98434 122.97339 157.43889 128.40039 151.33789 L 115.64453 140.00586 z M 17.927734 281.59961 L 494.07031 281.59961 C 490.11131 301.04661 472.87558 315.73242 452.26758 315.73242 L 59.732422 315.73242 C 39.124422 315.73242 21.887734 301.04661 17.927734 281.59961 z M 157.18359 332.79883 L 268.56055 332.79883 C 275.55814 332.87586 281.37048 338.19312 281.59961 345.59961 C 281.59961 352.65661 275.85778 358.40039 268.80078 358.40039 L 213.33203 358.40039 C 199.21803 358.40039 187.73242 369.886 187.73242 384 C 187.73242 398.114 199.21803 409.59961 213.33203 409.59961 L 315.73242 409.59961 C 317.50742 409.59961 319.23903 409.04567 320.70703 408.01367 L 418.3457 338.28711 C 421.8617 335.76111 426.13787 334.78089 430.42188 335.46289 C 434.69687 336.17089 438.43395 338.49022 441.00195 342.07422 C 441.25795 342.42422 441.48894 342.78339 441.71094 343.15039 C 446.02994 350.37939 444.02355 359.87581 436.68555 365.13281 L 332.74023 450.98633 C 325.11123 457.30133 315.46013 460.78378 305.57812 460.80078 L 102.40039 460.80078 L 102.40039 370.93555 L 141.06445 338.74609 C 145.60445 334.96609 151.34659 332.84983 157.18359 332.79883 z M 295.76367 332.79883 L 396.6582 332.79883 L 313.00195 392.5332 L 213.33203 392.5332 C 208.63003 392.5332 204.80078 388.71195 204.80078 384.00195 C 204.80078 379.29195 208.63003 375.46875 213.33203 375.46875 L 268.80078 375.46875 C 285.26978 375.46875 298.66797 362.07156 298.66797 345.60156 C 298.66797 345.50756 298.65839 344.72172 298.65039 344.63672 C 298.51404 340.39372 297.48422 336.39546 295.76367 332.79883 z M 42.667969 426.66797 C 28.553969 426.66797 17.066406 438.15358 17.066406 452.26758 C 17.066406 466.38158 28.553969 477.86719 42.667969 477.86719 C 56.781969 477.86719 68.267578 466.38158 68.267578 452.26758 C 68.267578 438.15358 56.781969 426.66797 42.667969 426.66797 z M 42.667969 443.73438 C 47.369969 443.73438 51.199219 447.55758 51.199219 452.26758 C 51.199219 456.97758 47.369969 460.80078 42.667969 460.80078 C 37.965969 460.80078 34.134766 456.97758 34.134766 452.26758 C 34.134766 447.55758 37.965969 443.73438 42.667969 443.73438 z "
     id="path2"
     style="opacity:0.605" /><g
     id="g56" /><g
     id="g58" /><g
     id="g60" /><g
     id="g62" /><g
     id="g64" /><g
     id="g66" /><g
     id="g68" /><g
     id="g70" /><g
     id="g72" /><g
     id="g74" /><g
     id="g76" /><g
     id="g78" /><g
     id="g80" /><g
     id="g82" /><g
     id="g84" /></svg>