<?xml version="1.0" encoding="iso-8859-1"?>
<!-- Generator: Adobe Illustrator 19.0.0, SVG Export Plug-In . SVG Version: 6.00 Build 0)  -->
<svg version="1.1" id="Layer_1" xmlns="http://www.w3.org/2000/svg" xmlns:xlink="http://www.w3.org/1999/xlink" x="0px" y="0px"
	 viewBox="0 0 473.654 473.654" style="enable-background:new 0 0 473.654 473.654;" xml:space="preserve">
<circle style="fill:#F3EA83;" cx="236.827" cy="236.827" r="236.827"/>
<g>
	<path style="fill:#F9AB60;" d="M204.873,119.861l-38.536,243.947l-9.36,0.146l38.648-245.058L204.873,119.861z"/>
	<path style="fill:#A6D0EE;" d="M206.163,55.454c72.335,7.502,119.693,94.417,119.693,94.417
		c-20.459-14.936-60.147-19.057-81.635-8.474c0,0-20.799-10.37-46.012-12.988c-25.208-2.606-44.52,3.601-44.52,3.601
		c-16.787-14.558-55.297-19.719-80.565-8.362C73.124,123.649,133.836,47.945,206.163,55.454z"/>
	<path style="fill:#B1D8F2;" d="M206.626,55.507c74.429,7.718,122.86,100.112,122.86,100.112
		c-21.001-15.833-61.845-20.063-84.006-8.713c0,0-21.368-10.972-47.309-13.657c-25.945-2.696-45.843,3.994-45.843,3.994
		c-17.228-15.441-56.849-20.796-82.903-8.605C69.425,128.638,132.205,47.777,206.626,55.507z"/>
	<path style="fill:#D1E8F8;" d="M206.163,55.454c24.292,0,38.058,85.943,38.058,85.943s-20.799-10.37-46.012-12.988
		c-25.208-2.606-44.52,3.601-44.52,3.601S181.874,55.454,206.163,55.454z"/>
	
		<ellipse transform="matrix(0.103 -0.9947 0.9947 0.103 128.7032 255.5752)" style="fill:#4B4A4B;" cx="206.055" cy="56.428" rx="3.829" ry="5.991"/>
	<path style="fill:#B17B48;" d="M205.347,367.694c0,6.017-4.88,5.09-10.897,5.09h-63.924c-6.017,0-10.897,0.927-10.897-5.09v-5.808
		c0-6.017,4.88-10.897,10.897-10.897h63.928c6.017,0,10.897,4.88,10.897,10.897v5.808H205.347z"/>
</g>
<path style="fill:#996B39;" d="M292.745,354.859c-1.324,0-2.543-0.868-2.924-2.206l-16.282-56.684
	c-0.464-1.615,0.471-3.302,2.087-3.77c1.612-0.467,3.302,0.467,3.766,2.09l16.282,56.684c0.464,1.615-0.467,3.302-2.087,3.77
	C293.302,354.826,293.022,354.859,292.745,354.859z"/>
<path style="fill:#E3B071;" d="M205.482,404.244c-0.572,0-1.156-0.161-1.668-0.505c-1.402-0.92-1.795-2.805-0.871-4.214
	l123.111-187.371c0.927-1.41,2.816-1.791,4.218-0.875c1.402,0.927,1.795,2.812,0.871,4.222L208.029,402.872
	C207.442,403.762,206.469,404.244,205.482,404.244z"/>
<g>
	<path style="fill:#996B39;" d="M377.977,377.862c-1.298,0-2.494-0.834-2.902-2.132l-50.107-160.188
		c-0.501-1.608,0.393-3.317,1.993-3.814c1.623-0.505,3.313,0.389,3.818,1.993l50.103,160.181c0.501,1.608-0.393,3.317-1.997,3.818
		C378.583,377.817,378.277,377.862,377.977,377.862z"/>
	<path style="fill:#996B39;" d="M385.378,380.045c-0.251,0-0.509-0.03-0.763-0.093l-94.66-24.513
		c-1.63-0.423-2.607-2.083-2.184-3.71c0.419-1.623,2.079-2.592,3.71-2.184l94.66,24.513c1.63,0.423,2.606,2.083,2.184,3.71
		C387.966,379.14,386.732,380.045,385.378,380.045z"/>
</g>
<path style="fill:#AA7243;" d="M377.981,377.862c-0.221,0-0.441-0.022-0.666-0.075l-89.294-19.962
	c-1.642-0.366-2.674-1.993-2.307-3.631c0.366-1.642,1.993-2.674,3.635-2.307l89.294,19.954c1.638,0.374,2.674,1.993,2.307,3.639
	C380.633,376.897,379.376,377.862,377.981,377.862z"/>
<g>
	<path style="fill:#B17B48;" d="M301.499,424.015c-0.251,0-0.512-0.03-0.767-0.094l-94.66-24.513
		c-1.627-0.423-2.603-2.083-2.184-3.71c0.419-1.623,2.083-2.599,3.71-2.184l94.66,24.513c1.63,0.423,2.606,2.083,2.184,3.71
		C304.091,423.107,302.853,424.015,301.499,424.015z"/>
	<path style="fill:#B17B48;" d="M294.099,359.257c-0.243,0-0.494-0.03-0.74-0.094l-87.936-21.985
		c-1.634-0.4-2.621-2.061-2.214-3.687c0.404-1.63,2.046-2.621,3.691-2.214l87.936,21.985c1.63,0.408,2.621,2.061,2.214,3.687
		C296.705,358.33,295.46,359.257,294.099,359.257z"/>
</g>
<path style="fill:#D1E8F8;" d="M324.027,218.892c-25.968,109.82-76.085,119.251-101.144,116.387l-15.037-3.755l-1.522,6.084
	l78.976,19.786l3.721-5.579l51.748,12.008c57.859-15.433,69.504-134.785,69.504-134.785L324.027,218.892z"/>
<g>
	<path style="fill:#A6D0EE;" d="M272.959,354.014l12.344,3.381l3.721-5.579l51.748,12.008
		c57.859-15.433,69.504-134.785,69.504-134.785l-19.105-2.023C388.628,379.892,272.959,354.014,272.959,354.014z"/>
	<path style="fill:#A6D0EE;" d="M324.027,218.892c-25.968,109.82-76.085,119.251-101.144,116.387l-15.037-3.755l-1.522,6.084
		l18.941,4.566c0,0,83.95,22.206,115.672-121.252L324.027,218.892z"/>
</g>
<path style="fill:#E3B071;" d="M297.476,430.623c-0.512,0-1.028-0.131-1.507-0.4c-1.462-0.841-1.963-2.696-1.133-4.155
	L409.831,225.16c0.841-1.462,2.696-1.963,4.155-1.126c1.458,0.834,1.96,2.696,1.129,4.147L300.12,429.09
	C299.559,430.077,298.53,430.623,297.476,430.623z"/>
<path style="fill:#A6D0EE;" d="M358.356,223.122l17.247,1.862c0,0-6.425,130.549-115.332,125.818l-15.56-3.717
	C244.714,347.081,346.688,348.435,358.356,223.122z"/>
<g>
</g>
<g>
</g>
<g>
</g>
<g>
</g>
<g>
</g>
<g>
</g>
<g>
</g>
<g>
</g>
<g>
</g>
<g>
</g>
<g>
</g>
<g>
</g>
<g>
</g>
<g>
</g>
<g>
</g>
</svg>
