<?xml version="1.0" encoding="UTF-8" standalone="no"?>
<svg
   xmlns:dc="http://purl.org/dc/elements/1.1/"
   xmlns:cc="http://creativecommons.org/ns#"
   xmlns:rdf="http://www.w3.org/1999/02/22-rdf-syntax-ns#"
   xmlns:svg="http://www.w3.org/2000/svg"
   xmlns="http://www.w3.org/2000/svg"
   xmlns:sodipodi="http://sodipodi.sourceforge.net/DTD/sodipodi-0.dtd"
   xmlns:inkscape="http://www.inkscape.org/namespaces/inkscape"
   id="Layer_1"
   data-name="Layer 1"
   viewBox="0 0 69.537244 17.962538"
   version="1.1"
   inkscape:version="0.91 r13725"
   sodipodi:docname="bus.svg"
   width="69.537247"
   height="17.962538">
  <metadata
     id="metadata43">
    <rdf:RDF>
      <cc:Work
         rdf:about="">
        <dc:format>image/svg+xml</dc:format>
        <dc:type
           rdf:resource="http://purl.org/dc/dcmitype/StillImage" />
        <dc:title>Home Page</dc:title>
      </cc:Work>
    </rdf:RDF>
  </metadata>
  <defs
     id="defs41" />
  <sodipodi:namedview
     pagecolor="#ffffff"
     bordercolor="#666666"
     borderopacity="1"
     objecttolerance="10"
     gridtolerance="10"
     guidetolerance="10"
     inkscape:pageopacity="0"
     inkscape:pageshadow="2"
     inkscape:window-width="1280"
     inkscape:window-height="996"
     id="namedview39"
     showgrid="false"
     inkscape:zoom="5.2670172"
     inkscape:cx="36.042626"
     inkscape:cy="16.609806"
     inkscape:window-x="1280"
     inkscape:window-y="0"
     inkscape:window-maximized="1"
     inkscape:current-layer="Layer_1"
     fit-margin-top="0.1"
     fit-margin-left="0.1"
     fit-margin-right="0.1"
     fit-margin-bottom="0.1" />
  <title
     id="title3">Home Page</title>
  <rect
     style="opacity:1;fill:#ffcc00;fill-opacity:1;fill-rule:nonzero;stroke:none;stroke-width:0.40000001;stroke-miterlimit:4;stroke-dasharray:none;stroke-opacity:1"
     id="rect4171"
     width="59.742069"
     height="14.096444"
     x="9.229126"
     y="0.28554499"
     rx="0.59531772"
     ry="0.40000001" />
  <polyline
     points="47.72 14.11 49.03 14.11 49.06 12.35 49.74 12.35 49.74 14.82 47.75 14.82"
     id="polyline5"
     transform="matrix(-1,0,0,1,49.84,0.05253703)"
     style="fill:#808285" />
  <polyline
     points="3.7 14.82 0 14.82 0 12.35 0.8 12.35 0.86 14.07 3.56 14.07"
     id="polyline7"
     transform="matrix(-1,0,0,1,69.437244,0.05253703)"
     style="fill:#808285" />
  <path
     d="M 68.48754,0.18678888 10.297453,0.10000223 C 9.3959477,0.09865773 9.086305,0.70444193 9.0923184,1.4500022 l 0.047465,5.8849304 c -0.6287453,-0.11 1.1540026,-0.2510897 0.9376056,-0.2523956 l -6.2028179,0 c -0.9015058,0 -1.6323207,0.6044156 -1.6323207,1.35 l 0,2.77 c -0.6474873,-0.0072 -1.1453208,0.471604 -1.0398487,1 l 0,2.69 1.0398487,0 0,0 1.6323207,0 0,-0.07"
     id="path9"
     inkscape:connector-curvature="0"
     style="fill:#f9a01d"
     sodipodi:nodetypes="cssccssccccccc" />
  <rect
     x="9.9799967"
     y="-7.5325079"
     width="2.99"
     height="4.6399999"
     rx="0.40000001"
     ry="0.40000001"
     transform="scale(1,-1)"
     id="rect11"
     style="fill:#afdde9" />
  <circle
     cx="-6.8300014"
     cy="14.942537"
     r="2.9200001"
     id="circle13"
     transform="scale(-1,1)"
     style="fill:#214e6a" />
  <circle
     cx="-57.439995"
     cy="14.942537"
     r="2.9200001"
     id="circle15"
     transform="scale(-1,1)"
     style="fill:#214e6a" />
  <rect
     x="13.799999"
     y="-7.5325079"
     width="2.99"
     height="4.6399999"
     rx="0.40000001"
     ry="0.40000001"
     transform="scale(1,-1)"
     id="rect17"
     style="fill:#afdde9" />
  <rect
     x="-66.615494"
     y="1.722537"
     width="57.525494"
     height="0.56"
     id="rect19"
     transform="scale(-1,1)"
     style="fill:#214e6a" />
  <rect
     x="17.580002"
     y="-7.5325079"
     width="6.02"
     height="4.6399999"
     rx="0.40000001"
     ry="0.40000001"
     transform="scale(1,-1)"
     id="rect21"
     style="fill:#afdde9" />
  <rect
     x="24.49"
     y="-7.5325079"
     width="6.02"
     height="4.6399999"
     rx="0.40000001"
     ry="0.40000001"
     transform="scale(1,-1)"
     id="rect23"
     style="fill:#afdde9" />
  <rect
     x="51.339996"
     y="-7.5325079"
     width="6.02"
     height="4.6399999"
     rx="0.40000001"
     ry="0.40000001"
     transform="scale(1,-1)"
     id="rect25"
     style="fill:#afdde9" />
  <rect
     x="58.209999"
     y="-7.5325079"
     width="8.3900003"
     height="4.6399999"
     rx="0.40000001"
     ry="0.40000001"
     transform="scale(1,-1)"
     id="rect27"
     style="fill:#afdde9" />
  <rect
     x="-66.481239"
     y="9.052537"
     width="57.391243"
     height="0.56"
     id="rect29"
     transform="scale(-1,1)"
     style="fill:#214e6a" />
  <rect
     x="-66.481239"
     y="10.552537"
     width="57.391243"
     height="0.56"
     id="rect31"
     transform="scale(-1,1)"
     style="fill:#214e6a" />
  <circle
     cx="-3.4300001"
     cy="9.7425365"
     r="0.79000002"
     id="circle33"
     transform="scale(-1,1)"
     style="fill:#214e6a" />
  <circle
     cx="-57.439995"
     cy="14.992537"
     r="1.78"
     id="circle35"
     transform="scale(-1,1)"
     style="fill:#d1d3d4" />
  <circle
     cx="-6.8300014"
     cy="14.942537"
     r="1.78"
     id="circle37"
     transform="scale(-1,1)"
     style="fill:#d1d3d4" />
  <rect
     x="31.290789"
     y="-7.5325079"
     width="7.1591644"
     height="4.6399999"
     rx="0.475692"
     ry="0.40000001"
     transform="scale(1,-1)"
     id="rect23-3"
     style="fill:#afdde9" />
  <rect
     x="39.588501"
     y="-7.5325079"
     width="10.86145"
     height="4.6399999"
     rx="0.72169101"
     ry="0.40000001"
     transform="scale(1,-1)"
     id="rect23-6"
     style="fill:#afdde9" />
</svg>
