<?xml version="1.0" encoding="UTF-8" standalone="no"?>
<!-- Created with Inkscape (http://www.inkscape.org/) -->

<svg
   xmlns:dc="http://purl.org/dc/elements/1.1/"
   xmlns:cc="http://creativecommons.org/ns#"
   xmlns:rdf="http://www.w3.org/1999/02/22-rdf-syntax-ns#"
   xmlns:svg="http://www.w3.org/2000/svg"
   xmlns="http://www.w3.org/2000/svg"
   xmlns:sodipodi="http://sodipodi.sourceforge.net/DTD/sodipodi-0.dtd"
   xmlns:inkscape="http://www.inkscape.org/namespaces/inkscape"
   width="40pt"
   height="40pt"
   viewBox="0 0 50.000002 49.999999"
   id="svg16936"
   version="1.1"
   inkscape:version="0.91 r13725"
   sodipodi:docname="cross.svg"
   inkscape:export-filename="/srv/vcs/github/classroom-assembly/classroom-assembly/src/css/images/icons/closePlayButton.png"
   inkscape:export-xdpi="72"
   inkscape:export-ydpi="72">
  <defs
     id="defs16938">
    <filter
       inkscape:collect="always"
       style="color-interpolation-filters:sRGB"
       id="filter4204"
       x="-0.035918712"
       width="1.0718374"
       y="-0.036081657"
       height="1.0721633">
      <feGaussianBlur
         inkscape:collect="always"
         stdDeviation="0.47495774"
         id="feGaussianBlur4206" />
    </filter>
  </defs>
  <sodipodi:namedview
     id="base"
     pagecolor="#ffffff"
     bordercolor="#666666"
     borderopacity="1.0"
     inkscape:pageopacity="0.0"
     inkscape:pageshadow="2"
     inkscape:zoom="5.12"
     inkscape:cx="26.985226"
     inkscape:cy="5.9378587"
     inkscape:document-units="px"
     inkscape:current-layer="layer1"
     showgrid="false"
     units="pt"
     showguides="false"
     inkscape:guide-bbox="true"
     inkscape:window-width="1280"
     inkscape:window-height="967"
     inkscape:window-x="0"
     inkscape:window-y="27"
     inkscape:window-maximized="1" />
  <metadata
     id="metadata16941">
    <rdf:RDF>
      <cc:Work
         rdf:about="">
        <dc:format>image/svg+xml</dc:format>
        <dc:type
           rdf:resource="http://purl.org/dc/dcmitype/StillImage" />
        <dc:title />
      </cc:Work>
    </rdf:RDF>
  </metadata>
  <g
     inkscape:label="Capa 1"
     inkscape:groupmode="layer"
     id="layer1"
     transform="translate(0,-1002.3623)">
    <path
       style="opacity:1;fill:#d40000;fill-opacity:1;fill-rule:nonzero;stroke:none;stroke-width:3;stroke-linecap:square;stroke-linejoin:miter;stroke-miterlimit:4;stroke-dasharray:none;stroke-dashoffset:4.69999981;stroke-opacity:1"
       d="m 94.798218,1071.9429 a 23.961529,23.961529 0 0 1 -23.961528,23.9615 23.961529,23.961529 0 0 1 -23.961529,-23.9615 23.961529,23.961529 0 0 1 23.961529,-23.9615 23.961529,23.961529 0 0 1 23.961528,23.9615 z"
       id="path4146"
       inkscape:connector-curvature="0" />
    <g
       transform="matrix(1.0137857,-1.0198917,1.0198917,1.0137857,-11.184031,-446.95347)"
       style="font-style:normal;font-weight:normal;font-size:103.61235809px;line-height:125%;font-family:sans-serif;letter-spacing:0px;word-spacing:0px;fill:#333333;fill-opacity:1;stroke:none;stroke-width:1px;stroke-linecap:butt;stroke-linejoin:miter;stroke-opacity:1;filter:url(#filter4204)"
       id="text17505-3">
      <path
         style="font-style:normal;font-variant:normal;font-weight:normal;font-stretch:normal;font-family:Sawasdee;-inkscape-font-specification:Sawasdee;fill:#333333"
         d="m -708.39569,761.41512 c -1.51776,0 -3.03552,0 -4.55328,0 0,-5.93613 0,-11.87225 0,-17.80838 -5.9024,0 -11.80479,0 -17.70719,0 0,-1.50089 0,-3.00179 0,-4.50268 5.9024,0 11.80479,0 17.70719,0 0,-5.96985 0,-11.93971 0,-17.90956 1.51776,0 3.03552,0 4.55328,0 0,5.96985 0,11.93971 0,17.90956 5.93612,0 11.87225,0 17.80837,0 0,1.50089 0,3.00179 0,4.50268 -5.93612,0 -11.87225,0 -17.80837,0 0,5.93613 0,11.87225 0,17.80838 z"
         id="path4149-6"
         inkscape:connector-curvature="0" />
    </g>
    <rect
       style="opacity:1;fill:#808080;fill-opacity:1;fill-rule:nonzero;stroke:none;stroke-width:3;stroke-linecap:square;stroke-linejoin:miter;stroke-miterlimit:4;stroke-dasharray:none;stroke-dashoffset:4.69999981;stroke-opacity:1"
       id="rect4152"
       width="118.75"
       height="104.49219"
       x="5.8593783"
       y="1059.5889" />
    <path
       inkscape:connector-curvature="0"
       id="path4149"
       d="m 47.1233,1044.824 c -1.538685,1.548 -3.077368,3.096 -4.616051,4.6439 -6.05421,-6.018 -12.108412,-12.0359 -18.162621,-18.0538 -5.983768,6.0196 -11.967526,12.0395 -17.9512952,18.0595 -1.5307449,-1.5217 -3.0615005,-3.0432 -4.5922463,-4.5649 5.9837681,-6.0198 11.9675285,-12.0398 17.9512975,-18.0594 -6.088602,-6.0521 -12.1772123,-12.1044 -18.2658131,-18.1565 1.5386836,-1.5479 3.0773663,-3.0958 4.6160506,-4.6438 6.0885995,6.0521 12.1772125,12.1043 18.2658105,18.1565 6.017954,-6.0543 12.035919,-12.1084 18.053873,-18.1627 1.530745,1.5217 3.061501,3.0432 4.592246,4.5647 -6.017954,6.0543 -12.035917,12.1084 -18.053872,18.1627 6.05421,6.0179 12.108411,12.036 18.162621,18.0538 z"
       style="font-style:normal;font-variant:normal;font-weight:normal;font-stretch:normal;font-size:medium;line-height:125%;font-family:Sawasdee;-inkscape-font-specification:Sawasdee;letter-spacing:0px;word-spacing:0px;fill:#d40000;fill-opacity:1;stroke:none;stroke-width:1px;stroke-linecap:butt;stroke-linejoin:miter;stroke-opacity:1" />
  </g>
</svg>
