<?xml version="1.0" encoding="UTF-8"?>
<!-- Svg Vector Icons : http://www.onlinewebfonts.com/icon -->
<!DOCTYPE svg PUBLIC "-//W3C//DTD SVG 1.1//EN" "http://www.w3.org/Graphics/SVG/1.1/DTD/svg11.dtd">
<svg version="1.1" xmlns="http://www.w3.org/2000/svg" xmlns:xlink="http://www.w3.org/1999/xlink" x="0px" y="0px" viewBox="0 0 1000 1000" enable-background="new 0 0 1000 1000" xml:space="preserve">
<metadata> Svg Vector Icons : http://www.onlinewebfonts.com/icon </metadata>
<g><path d="M500,613.1L780,360H605V150H394.1v210H220L500,613.1z M958,590.1L801.9,469.8H710L845.6,605H734.9c-5,0-9.4,2.6-11.8,6.3l-40.2,99.5H316.5l-40.2-99.5c-2.2-3.9-6.8-6.3-11.8-6.3H154L290,469.8h-92.3L41.5,590.1C18.3,603.7,7,631.7,10.7,659.2l19,146.3c5,28.7,21.2,44.4,61.5,44.4h817.6c41.8,0,56.4-16.6,61.5-44.4l19-146.3C993,631,981.2,603.7,958,590.1z"/></g>
</svg>