<?xml version="1.0" encoding="UTF-8" standalone="no"?>
<!-- Created with Inkscape (http://www.inkscape.org/) -->

<svg
   xmlns:dc="http://purl.org/dc/elements/1.1/"
   xmlns:cc="http://creativecommons.org/ns#"
   xmlns:rdf="http://www.w3.org/1999/02/22-rdf-syntax-ns#"
   xmlns:svg="http://www.w3.org/2000/svg"
   xmlns="http://www.w3.org/2000/svg"
   xmlns:xlink="http://www.w3.org/1999/xlink"
   xmlns:sodipodi="http://sodipodi.sourceforge.net/DTD/sodipodi-0.dtd"
   xmlns:inkscape="http://www.inkscape.org/namespaces/inkscape"
   width="1280mm"
   height="1024mm"
   viewBox="0 0 4535.4331 3628.3464"
   id="svg5064"
   version="1.1"
   inkscape:version="0.91 r13725"
   sodipodi:docname="bgs.svg"
   inkscape:export-filename="/srv/svn/github/classroom-assembly/classroom-assembly/src/css/images/backgrounds/bg1.jpg"
   inkscape:export-xdpi="25.4"
   inkscape:export-ydpi="25.4">
  <defs
     id="defs5066">
    <linearGradient
       inkscape:collect="always"
       id="linearGradient5754">
      <stop
         style="stop-color:#cccccc;stop-opacity:1;"
         offset="0"
         id="stop5756" />
      <stop
         style="stop-color:#cccccc;stop-opacity:0.42447917"
         offset="1"
         id="stop5758" />
    </linearGradient>
    <linearGradient
       inkscape:collect="always"
       xlink:href="#linearGradient5754"
       id="linearGradient5764"
       x1="1943.1801"
       y1="-2211.2849"
       x2="125.60488"
       y2="1589.3269"
       gradientUnits="userSpaceOnUse"
       gradientTransform="matrix(1.2306273,-0.41723899,0.41723899,1.2306273,815.29295,8255.3366)" />
    <linearGradient
       gradientTransform="translate(-338.40131,-398.37324)"
       inkscape:collect="always"
       xlink:href="#linearGradient5754"
       id="linearGradient5764-7"
       x1="1943.1801"
       y1="-2211.2849"
       x2="125.60488"
       y2="1589.3269"
       gradientUnits="userSpaceOnUse" />
    <linearGradient
       gradientTransform="matrix(0.56932059,-1.1597565,1.1597565,0.56932059,3700.9407,101.81228)"
       inkscape:collect="always"
       xlink:href="#linearGradient5754"
       id="linearGradient5764-7-6"
       x1="1943.1801"
       y1="-2211.2849"
       x2="125.60488"
       y2="1589.3269"
       gradientUnits="userSpaceOnUse" />
    <linearGradient
       gradientTransform="matrix(-0.99804724,1.6542494,-1.6542494,-0.99804724,2016.3132,-3016.0367)"
       inkscape:collect="always"
       xlink:href="#linearGradient5754"
       id="linearGradient5764-7-61"
       x1="1943.1801"
       y1="-2211.2849"
       x2="125.60488"
       y2="1589.3269"
       gradientUnits="userSpaceOnUse" />
    <clipPath
       id="clipPath18"
       clipPathUnits="userSpaceOnUse">
      <path
         inkscape:connector-curvature="0"
         id="path20"
         d="m 0,0 0,11852 14664,0 L 14664,0 0,0 Z" />
    </clipPath>
    <clipPath
       id="clipPath24"
       clipPathUnits="userSpaceOnUse">
      <path
         inkscape:connector-curvature="0"
         id="path26"
         d="m 9689.02,11477.2 -7.63,-50.7 -175.42,-1152.8 -28.43,-187 c 31.12,-27.7 59.82,-58.6 85.43,-93.41 196.26,-266.72 139.1,-643.07 -127.65,-839.3 -129.34,-95.32 -287.6,-134.45 -446.14,-110.25 -158.3,24.32 -298.23,108.53 -393.35,237.67 -95.08,129.33 -133.79,287.79 -109.94,446.13 24.04,158.5 108.53,298.06 237.86,393.36 34.73,25.5 71.31,46.6 109.09,63.6 l 28.38,187 c 14,92.1 28.22,185.6 42.46,278.6 72.75,478 140.66,925.1 140.66,925.1 12.87,86.1 58.82,161.8 129.06,213.5 70.03,51.5 156.16,73.1 242.6,59.9 177.42,-27 300.07,-193.6 273.02,-371.4" />
    </clipPath>
    <clipPath
       id="clipPath208"
       clipPathUnits="userSpaceOnUse">
      <path
         inkscape:connector-curvature="0"
         id="path210"
         d="m 9204.37,11522.2 -222.65,-1467 c -55.29,-13 -108.39,-36.7 -156.74,-72.27 -190.88,-140.56 -231.93,-408.92 -91.29,-600.1 140.71,-190.92 409.19,-231.73 600.13,-91.29 190.95,140.62 231.57,409.22 91.18,599.98 -35.67,48.44 -79.37,87.14 -127.93,115.68 l 223.12,1467.1 c 13.26,87.2 -46.6,168.5 -133.78,181.8 -87.11,13.4 -168.67,-46.6 -182.04,-133.9" />
    </clipPath>
    <clipPath
       id="clipPath392"
       clipPathUnits="userSpaceOnUse">
      <path
         inkscape:connector-curvature="0"
         id="path394"
         d="m 8981.72,10058.2 0,-3 c -55.29,-13 -108.39,-36.7 -156.74,-72.27 -190.88,-140.56 -231.93,-408.92 -91.29,-600.1 140.71,-190.92 409.19,-231.73 600.13,-91.29 190.95,140.62 231.57,409.22 91.18,599.98 -35.67,48.44 -79.37,87.14 -127.93,115.68 l 0.47,3.1 c 13.26,87.2 19.32,204.5 -121.51,231.7 -145.72,28.2 -180.98,-96.6 -194.31,-183.8" />
    </clipPath>
    <clipPath
       id="clipPath602"
       clipPathUnits="userSpaceOnUse">
      <path
         inkscape:connector-curvature="0"
         id="path604"
         d="m 9512.69,10317.9 1.95,12.7 -644.74,98.1 c -0.67,-4.4 -1.29,-8.7 -1.96,-13 l -8.25,-54.6 644.67,-98 8.33,54.8" />
    </clipPath>
    <clipPath
       id="clipPath1178"
       clipPathUnits="userSpaceOnUse">
      <path
         inkscape:connector-curvature="0"
         id="path1180"
         d="m 9140.72,9988.79 23.54,100.01 c 5.4,35.5 -19,68.6 -54.46,74 -35.5,5.4 -68.7,-19 -74.21,-54.6 l -25.49,-114.99 c -118.22,-13.02 -209.29,-73.35 -222.15,-158 -17,-111.93 109.01,-223.98 281.5,-250.21 172.53,-26.24 326.18,43.28 343.19,155.21 16.74,109.83 -104.35,219.69 -271.92,248.58" />
    </clipPath>
    <clipPath
       id="clipPath1428"
       clipPathUnits="userSpaceOnUse">
      <path
         inkscape:connector-curvature="0"
         id="path1430"
         d="m 0,0 0,11852 14664,0 L 14664,0 0,0 Z" />
    </clipPath>
    <clipPath
       id="clipPath1434"
       clipPathUnits="userSpaceOnUse">
      <path
         inkscape:connector-curvature="0"
         id="path1436"
         d="m 2021.7,11477.2 -7.59,-50.7 -175.43,-1152.8 -28.46,-187 c 31.2,-27.7 59.82,-58.6 85.51,-93.45 196.18,-266.72 139.02,-643.03 -127.66,-839.29 -129.41,-95.32 -287.67,-134.42 -446.21,-110.26 -158.3,24.32 -298.19,108.57 -393.27,237.71 -95.164,129.29 -133.871,287.75 -110.024,446.13 24.086,158.46 108.536,298.06 237.904,393.26 34.72,25.6 71.28,46.7 109.12,63.6 l 28.31,187.1 c 13.99,92.1 28.23,185.6 42.46,278.5 72.76,478.1 140.75,925.1 140.75,925.1 12.86,86.2 58.72,161.9 128.98,213.6 70.02,51.5 156.19,73.1 242.55,59.9 177.5,-27 300.11,-193.6 273.06,-371.4" />
    </clipPath>
    <clipPath
       id="clipPath1618"
       clipPathUnits="userSpaceOnUse">
      <path
         inkscape:connector-curvature="0"
         id="path1620"
         d="m 1537.05,11522.2 -222.62,-1467 c -55.28,-13 -108.41,-36.7 -156.73,-72.27 -190.954,-140.56 -231.966,-408.92 -91.26,-600.14 140.67,-190.88 409.15,-231.73 600.06,-91.25 190.99,140.59 231.57,409.18 91.18,599.98 -35.66,48.44 -79.33,87.1 -127.93,115.68 l 223.16,1467.1 c 13.26,87.2 -46.6,168.5 -133.82,181.8 -87.07,13.4 -168.63,-46.7 -182.04,-133.9" />
    </clipPath>
    <clipPath
       id="clipPath1802"
       clipPathUnits="userSpaceOnUse">
      <path
         inkscape:connector-curvature="0"
         id="path1804"
         d="m 1483.45,11169.6 -169.02,-1114.4 c -55.28,-13 -108.41,-36.7 -156.73,-72.27 -190.954,-140.56 -231.966,-408.92 -91.26,-600.14 140.67,-190.88 409.15,-231.73 600.06,-91.25 190.99,140.59 231.57,409.18 91.18,599.98 -35.66,48.44 -79.33,87.1 -127.93,115.68 l 169.56,1114.6 c 13.26,87.2 -46.64,168.5 -133.83,181.8 -87.1,13.3 -168.62,-46.7 -182.03,-134" />
    </clipPath>
    <clipPath
       id="clipPath2282"
       clipPathUnits="userSpaceOnUse">
      <path
         inkscape:connector-curvature="0"
         id="path2284"
         d="m 1473.48,9988.75 173.32,1139.35 c 5.39,35.4 -19.01,68.6 -54.51,74 -35.45,5.4 -68.69,-19 -74.12,-54.6 L 1342.82,9993.21 c -118.27,-13.02 -209.28,-73.39 -222.19,-158.03 -17,-111.93 109.04,-223.95 281.54,-250.18 172.49,-26.24 326.14,43.24 343.19,155.17 16.69,109.87 -104.39,219.69 -271.88,248.58" />
    </clipPath>
    <clipPath
       id="clipPath2738"
       clipPathUnits="userSpaceOnUse">
      <path
         inkscape:connector-curvature="0"
         id="path2740"
         d="m 1845.41,10317.9 1.91,12.7 -644.7,98.1 c -0.67,-4.4 -1.33,-8.7 -1.99,-13 l -8.22,-54.6 644.63,-98 8.37,54.8" />
    </clipPath>
    <clipPath
       id="clipPath3314"
       clipPathUnits="userSpaceOnUse">
      <path
         inkscape:connector-curvature="0"
         id="path3316"
         d="m 0,0 0,11852 14664,0 L 14664,0 0,0 Z" />
    </clipPath>
    <clipPath
       id="clipPath3320"
       clipPathUnits="userSpaceOnUse">
      <path
         inkscape:connector-curvature="0"
         id="path3322"
         d="m 5957.65,11477.2 -7.67,-50.7 -175.39,-1152.8 -28.42,-187 c 31.12,-27.7 59.74,-58.6 85.43,-93.41 196.19,-266.72 139.1,-643.07 -127.65,-839.3 -129.41,-95.32 -287.68,-134.45 -446.22,-110.25 -158.3,24.32 -298.23,108.57 -393.27,237.71 -95.16,129.29 -133.83,287.75 -109.98,446.09 24.08,158.5 108.49,298.06 237.9,393.36 34.64,25.5 71.24,46.6 109.08,63.6 l 28.39,187 c 13.92,92.1 28.23,185.6 42.34,278.6 72.84,478 140.79,925.1 140.79,925.1 12.86,86.1 58.72,161.8 129.02,213.5 69.98,51.5 156.11,73.1 242.55,59.9 177.5,-27 300.08,-193.6 273.1,-371.4" />
    </clipPath>
    <clipPath
       id="clipPath3504"
       clipPathUnits="userSpaceOnUse">
      <path
         inkscape:connector-curvature="0"
         id="path3506"
         d="m 5472.93,11522.2 -222.59,-1467 c -55.36,-13 -108.45,-36.7 -156.73,-72.27 -190.95,-140.52 -231.93,-408.92 -91.29,-600.1 140.63,-190.87 409.1,-231.73 600.06,-91.26 190.94,140.59 231.6,409.19 91.21,599.95 -35.7,48.48 -79.33,87.14 -127.96,115.68 l 223.2,1467.1 c 13.25,87.2 -46.65,168.6 -133.83,181.8 -87.07,13.4 -168.67,-46.6 -182.07,-133.9" />
    </clipPath>
    <clipPath
       id="clipPath3688"
       clipPathUnits="userSpaceOnUse">
      <path
         inkscape:connector-curvature="0"
         id="path3690"
         d="m 5313.25,10472.3 -62.91,-417.1 c -55.36,-13 -108.45,-36.7 -156.73,-72.27 -190.95,-140.52 -231.93,-408.92 -91.29,-600.1 140.63,-190.87 409.1,-231.73 600.06,-91.26 190.94,140.59 231.6,409.19 91.21,599.95 -35.7,48.48 -79.33,87.14 -127.96,115.68 l 63.52,417.2 c 13.26,87.2 -46.64,168.6 -133.82,181.8 -87.07,13.4 -168.67,-46.6 -182.08,-133.9" />
    </clipPath>
    <clipPath
       id="clipPath3830"
       clipPathUnits="userSpaceOnUse">
      <path
         inkscape:connector-curvature="0"
         id="path3832"
         d="m 5409.35,9988.79 69.08,454.11 c 5.4,35.6 -19,68.7 -54.46,74 -35.49,5.5 -68.65,-18.9 -74.12,-54.5 l -71.2,-469.15 c -118.19,-13.06 -209.28,-73.39 -222.15,-158.04 -17.04,-111.93 109.05,-223.94 281.58,-250.17 172.46,-26.24 326.15,43.24 343.15,155.17 16.74,109.83 -104.35,219.69 -271.88,248.58" />
    </clipPath>
    <clipPath
       id="clipPath4322"
       clipPathUnits="userSpaceOnUse">
      <path
         inkscape:connector-curvature="0"
         id="path4324"
         d="m 5781.32,10317.9 1.95,12.7 -644.74,98.1 c -0.67,-4.4 -1.33,-8.7 -1.96,-13 l -8.32,-54.6 644.74,-98 8.33,54.8" />
    </clipPath>
    <clipPath
       id="clipPath4898"
       clipPathUnits="userSpaceOnUse">
      <path
         inkscape:connector-curvature="0"
         id="path4900"
         d="m 9760.39,5401.21 c 214.64,0 388.61,173.98 388.61,388.66 0,160.49 -97.3,298.27 -236.17,357.54 -17.91,377.25 -329.35,677.63 -711.1,677.63 -264.99,0 -496.02,-144.89 -618.59,-359.73 -79.87,43.05 -171.2,67.56 -268.32,67.56 -238.64,0 -442.61,-147.78 -525.78,-356.76 -194.38,-21.47 -345.61,-186.18 -345.61,-386.24 0,-214.68 174.02,-388.66 388.66,-388.66 l 1928.3,0" />
    </clipPath>
    <clipPath
       id="clipPath5152"
       clipPathUnits="userSpaceOnUse">
      <path
         inkscape:connector-curvature="0"
         id="path5154"
         d="m 10339.7,4897.13 c 214.6,0 388.6,173.98 388.6,388.67 0,160.49 -97.3,298.27 -236.1,357.54 -17.9,377.24 -329.4,677.62 -711.13,677.62 -265,0 -496.02,-144.89 -618.63,-359.73 -79.83,43.05 -171.2,67.56 -268.28,67.56 -238.65,0 -442.66,-147.78 -525.77,-356.79 -194.4,-21.43 -345.62,-186.14 -345.62,-386.2 0,-214.69 173.98,-388.67 388.62,-388.67 l 1928.31,0" />
    </clipPath>
    <clipPath
       id="clipPath5406"
       clipPathUnits="userSpaceOnUse">
      <path
         inkscape:connector-curvature="0"
         id="path5408"
         d="m 13632.6,5509.32 c 200.1,0 362.3,162.21 362.3,362.27 0,149.62 -90.7,278.05 -220.1,333.3 -16.8,351.67 -307.1,631.65 -662.8,631.65 -247.1,0 -462.5,-135.1 -576.7,-335.38 -74.4,40.19 -159.6,63.03 -250.1,63.03 -222.4,0 -412.6,-137.74 -490.1,-332.56 -181.2,-19.98 -322.2,-173.47 -322.2,-360.04 0,-200.06 162.3,-362.27 362.3,-362.27 l 1797.4,0" />
    </clipPath>
    <clipPath
       id="clipPath5778"
       clipPathUnits="userSpaceOnUse">
      <path
         inkscape:connector-curvature="0"
         id="path5780"
         d="m 13712,6183.19 c -3.5,328.84 -271,594.27 -600.7,594.27 -242.6,0 -451.5,-143.88 -546.3,-350.89 -76.3,52.47 -168.7,83.27 -268.2,83.27 -207.1,0 -383.1,-132.89 -447.6,-317.93 -3.4,0.11 -6.7,0.23 -10,0.23 -178.8,0 -323.7,-144.85 -323.7,-323.57 0,-4.06 0.2,-8.13 0.4,-12.23 6.4,159.24 146.7,286.77 319.6,288.57 1.2,0 2.4,0.08 3.7,0.08 10,0 19.9,-0.51 29.7,-1.33 5.6,15.32 12,30.3 19.3,44.8 74.4,148.42 234,250.97 418.9,250.97 87,0 168.3,-22.72 237.8,-62.16 15.3,-8.69 30,-18.19 44,-28.39 6,14.9 12.6,29.48 19.8,43.71 92.8,183.83 283,309.98 502.6,309.98 293.5,0 534.5,-225.06 560.7,-512.34 1.4,-15.68 2.3,-31.44 2.4,-47.39 12.3,-1.29 24.4,-3.32 36.3,-5.9 139.1,-30.23 243.6,-143.65 249.1,-280.6 0.1,4.1 0.3,8.17 0.3,12.23 0,152.72 -105.8,280.64 -248.1,314.62" />
    </clipPath>
    <clipPath
       id="clipPath5814"
       clipPathUnits="userSpaceOnUse">
      <path
         inkscape:connector-curvature="0"
         id="path5816"
         d="m 14275.3,4897.13 c 214.7,0 388.7,173.98 388.7,388.67 0,160.49 -97.4,298.27 -236.2,357.54 -17.9,377.24 -329.4,677.62 -711.1,677.62 -265,0 -496,-144.89 -618.6,-359.73 -79.9,43.05 -171.2,67.56 -268.3,67.56 -238.7,0 -442.7,-147.78 -525.8,-356.79 -194.4,-21.43 -345.6,-186.14 -345.6,-386.2 0,-214.69 174,-388.67 388.6,-388.67 l 1928.3,0" />
    </clipPath>
    <clipPath
       id="clipPath6068"
       clipPathUnits="userSpaceOnUse">
      <path
         inkscape:connector-curvature="0"
         id="path6070"
         d="m 1373.72,6688.62 c 24.75,-35.46 65.06,-35.46 89.69,0 l 114.71,165.11 c 24.63,35.5 52.31,29.95 61.5,-12.24 l 42.84,-196.38 c 9.16,-42.27 46.49,-57.67 82.77,-34.33 l 169.22,108.61 c 36.28,23.34 59.74,7.7 52.11,-34.87 l -35.61,-197.83 c -7.67,-42.5 20.84,-71 63.33,-63.38 l 197.87,35.62 c 42.58,7.66 58.22,-15.76 34.88,-52.12 L 2138.41,6237.6 c -23.37,-36.36 -7.93,-73.62 34.33,-82.77 l 196.42,-42.81 c 42.15,-9.23 47.66,-36.91 12.2,-61.5 l -165.11,-114.71 c -35.41,-24.7 -35.41,-64.98 0,-89.72 l 165.11,-114.64 c 35.46,-24.67 29.95,-52.35 -12.2,-61.57 l -196.42,-42.74 c -42.26,-9.23 -57.7,-46.48 -34.33,-82.85 l 108.62,-169.13 c 23.34,-36.36 7.7,-59.86 -34.88,-52.19 l -197.87,35.53 c -42.49,7.71 -71,-20.79 -63.33,-63.33 l 35.61,-197.79 c 7.63,-42.5 -15.83,-58.22 -52.11,-34.87 l -169.22,108.61 c -36.28,23.34 -73.61,7.89 -82.77,-34.29 l -42.84,-196.38 c -9.19,-42.23 -36.87,-47.74 -61.5,-12.28 l -114.71,165.1 c -24.63,35.43 -64.94,35.43 -89.69,0 l -114.71,-165.1 c -24.59,-35.46 -52.35,-29.95 -61.5,12.28 l -42.81,196.38 c -9.19,42.18 -46.45,57.63 -82.81,34.29 L 902.758,5062.51 c -36.399,-23.35 -59.817,-7.63 -52.195,34.87 l 35.617,197.79 c 7.664,42.54 -20.836,71.04 -63.336,63.33 l -197.828,-35.53 c -42.618,-7.67 -58.215,15.83 -34.953,52.19 l 108.687,169.13 c 23.383,36.37 7.898,73.62 -34.328,82.85 l -196.34,42.74 c -42.227,9.22 -47.781,36.9 -12.359,61.57 l 165.109,114.64 c 35.535,24.74 35.535,65.02 0,89.72 l -165.109,114.71 c -35.422,24.59 -29.868,52.27 12.359,61.5 l 196.34,42.81 c 42.226,9.15 57.711,46.41 34.328,82.77 l -108.687,169.21 c -23.262,36.36 -7.665,59.78 34.953,52.12 l 197.828,-35.62 c 42.5,-7.62 71,20.88 63.336,63.38 l -35.617,197.83 c -7.622,42.57 15.796,58.21 52.195,34.87 l 169.132,-108.61 c 36.36,-23.34 73.62,-7.94 82.81,34.33 l 42.81,196.38 c 9.15,42.19 36.91,47.74 61.5,12.24 l 114.71,-165.11" />
    </clipPath>
    <clipPath
       id="clipPath6378"
       clipPathUnits="userSpaceOnUse">
      <path
         inkscape:connector-curvature="0"
         id="path6380"
         d="m 4777.13,6751.27 c 23.42,-33.75 61.73,-33.75 85.15,0 l 109.01,156.85 c 23.41,33.74 49.73,28.51 58.52,-11.57 l 40.62,-186.73 c 8.76,-40.07 44.18,-54.77 78.71,-32.57 l 160.76,103.22 c 34.56,22.17 56.89,7.27 49.58,-33.11 l -33.86,-188.06 c -7.23,-40.39 19.86,-67.48 60.29,-60.25 l 187.98,33.9 c 40.42,7.27 55.28,-15.06 33.15,-49.57 l -103.22,-160.74 c -22.24,-34.55 -7.54,-70.02 32.57,-78.73 l 186.65,-40.67 c 40.15,-8.71 45.39,-35.07 11.61,-58.49 l -156.82,-109.04 c -33.78,-23.42 -33.78,-61.73 0,-85.19 l 156.82,-108.96 c 33.78,-23.46 28.54,-49.73 -11.61,-58.53 l -186.65,-40.62 c -40.11,-8.76 -54.81,-44.18 -32.57,-78.7 l 103.22,-160.81 c 22.13,-34.52 7.27,-56.81 -33.15,-49.57 l -187.98,33.9 c -40.43,7.23 -67.52,-19.87 -60.29,-60.25 l 33.86,-188.06 c 7.31,-40.39 -15.02,-55.28 -49.58,-33.12 l -160.76,103.22 c -34.53,22.21 -69.95,7.55 -78.71,-32.61 l -40.62,-186.61 c -8.79,-40.15 -35.11,-45.39 -58.52,-11.65 l -109.01,156.9 c -23.42,33.74 -61.73,33.74 -85.15,0 l -109.04,-156.9 c -23.46,-33.74 -49.77,-28.5 -58.49,11.65 l -40.66,186.61 c -8.8,40.16 -44.14,54.82 -78.74,32.61 L 4329.47,5205.8 c -34.52,-22.16 -56.84,-7.27 -49.57,33.12 l 33.85,188.06 c 7.28,40.38 -19.82,67.48 -60.25,60.25 l -187.97,-33.9 c -40.43,-7.24 -55.32,15.05 -33.19,49.57 l 103.25,160.81 c 22.21,34.52 7.5,69.94 -32.61,78.7 l -186.64,40.62 c -40.12,8.8 -45.36,35.07 -11.62,58.53 l 156.86,108.96 c 33.74,23.46 33.74,61.77 0,85.19 l -156.86,109.04 c -33.74,23.42 -28.5,49.78 11.62,58.49 l 186.64,40.67 c 40.11,8.71 54.82,44.18 32.61,78.73 l -103.25,160.74 c -22.13,34.51 -7.24,56.84 33.19,49.57 l 187.97,-33.9 c 40.43,-7.23 67.53,19.86 60.25,60.25 l -33.85,188.06 c -7.27,40.38 15.05,55.28 49.57,33.11 l 160.73,-103.22 c 34.6,-22.2 69.94,-7.5 78.74,32.57 l 40.66,186.73 c 8.72,40.08 35.03,45.31 58.49,11.57 l 109.04,-156.85" />
    </clipPath>
    <clipPath
       id="clipPath6690"
       clipPathUnits="userSpaceOnUse">
      <path
         inkscape:connector-curvature="0"
         id="path6692"
         d="m 6448.72,4725.23 c 208.66,0 377.79,169.13 377.79,377.79 0,156.07 -94.58,289.98 -229.54,347.61 -17.4,366.73 -320.2,658.71 -691.23,658.71 -257.65,0 -482.26,-140.87 -601.35,-349.73 -77.68,41.87 -166.44,65.68 -260.85,65.68 -231.97,0 -430.22,-143.67 -511.08,-346.83 -188.96,-20.83 -335.96,-180.89 -335.96,-375.44 0,-208.66 169.14,-377.79 377.76,-377.79 l 1874.46,0" />
    </clipPath>
    <clipPath
       id="clipPath6944"
       clipPathUnits="userSpaceOnUse">
      <path
         inkscape:connector-curvature="0"
         id="path6946"
         d="m 2429.6,1141.82 c 225.08,0 407.54,182.46 407.54,407.54 0,168.35 -102.04,312.82 -247.63,374.98 -18.81,395.59 -345.39,710.59 -745.66,710.59 -277.94,0 -520.22,-152.01 -648.74,-377.29 -83.7,45.2 -179.53,70.88 -281.337,70.88 -250.257,0 -464.16,-154.98 -551.382,-374.11 C 158.578,1931.92 0,1759.2 0,1549.36 0,1324.28 182.465,1141.82 407.547,1141.82 l 2022.053,0" />
    </clipPath>
    <clipPath
       id="clipPath7316"
       clipPathUnits="userSpaceOnUse">
      <path
         inkscape:connector-curvature="0"
         id="path7318"
         d="m 2518.9,1899.95 c -3.99,369.85 -304.92,668.51 -675.76,668.51 -272.93,0 -507.91,-161.86 -614.64,-394.72 -85.81,58.99 -189.73,93.64 -301.746,93.64 -232.977,0 -430.926,-149.47 -503.531,-357.67 -3.754,0.12 -7.504,0.28 -11.258,0.28 -201.074,0 -364.0705,-162.95 -364.0705,-363.99 0,-4.61 0.1993,-9.18 0.3555,-13.76 7.2305,179.14 165.027,322.59 359.57,324.58 1.368,0 2.739,0.12 4.145,0.12 11.258,0 22.402,-0.59 33.465,-1.49 6.258,17.24 13.449,34.09 21.66,50.4 83.75,166.94 263.281,282.36 471.316,282.36 97.824,0 189.304,-25.58 267.544,-69.99 17.19,-9.74 33.7,-20.41 49.49,-31.9 6.73,16.73 14.15,33.11 22.25,49.14 104.42,206.83 318.36,348.71 565.45,348.71 330.18,0 601.24,-253.15 630.79,-576.37 1.57,-17.59 2.51,-35.34 2.66,-53.25 13.84,-1.48 27.49,-3.75 40.86,-6.65 156.51,-34.05 274.03,-161.62 280.21,-315.66 0.15,4.58 0.35,9.15 0.35,13.76 0,171.79 -119.05,315.71 -279.11,353.95" />
    </clipPath>
    <clipPath
       id="clipPath7352"
       clipPathUnits="userSpaceOnUse">
      <path
         inkscape:connector-curvature="0"
         id="path7354"
         d="m 2084.33,976.203 0,0 0,0 0,0 0,0 0,0 0,0 0,0 0,0 0,0 0,0 0,0 0,0 0,0 0,0 0,0 0,0 0,0 0,0 0,0 z m 0,0 0,0 0,0 0,0 0,0 0,0 0,0 0,0 0,0 0,0 0,0 z m 0,0 0,0 0,0 0,0 0,0 0,0 0,0 z m 0,0 0,0 0,0 0,0 0,0 z m 0,0 0,0 0,0 0,0 0,0" />
    </clipPath>
    <clipPath
       id="clipPath7532"
       clipPathUnits="userSpaceOnUse">
      <path
         inkscape:connector-curvature="0"
         id="path7534"
         d="m 2084.33,976.203 c -82.14,-134.34 -148.84,-181.961 -256.39,-311.918 -104.39,-126.164 -55.33,-252.957 66.23,-252.957 121.55,0 255.92,126.793 236.53,252.957 -20.05,129.957 -54.74,177.578 -46.37,311.918" />
    </clipPath>
    <clipPath
       id="clipPath7712"
       clipPathUnits="userSpaceOnUse">
      <path
         inkscape:connector-curvature="0"
         id="path7714"
         d="m 2064.35,916.891 0,0 0,0 0,0 0,0 0,0 0,0 0,0 0,0 0,0 0,0 0,0 0,0 0,0 0,0 0,0 0,0 0,0 0,0 0,0 z m 0,0 0,0 0,0 0,0 0,0 0,0 0,0 0,0 0,0 0,0 0,0 z m 0,0 0,0 0,0 0,0 0,0 0,0 0,0 z m 0,0 0,0 0,0 0,0 0,0 z m 0,0 0,0 0,0 0,0 0,0" />
    </clipPath>
    <clipPath
       id="clipPath7832"
       clipPathUnits="userSpaceOnUse">
      <path
         inkscape:connector-curvature="0"
         id="path7834"
         d="m 2064.35,916.891 c -43.67,-68.883 -80.03,-93.321 -137.89,-159.946 -56.1,-64.703 -27.09,-129.683 40.39,-129.683 67.48,0 140.28,64.98 127.69,129.683 -12.94,66.625 -32.92,91.063 -30.19,159.946" />
    </clipPath>
    <clipPath
       id="clipPath7952"
       clipPathUnits="userSpaceOnUse">
      <path
         inkscape:connector-curvature="0"
         id="path7954"
         d="m 642.09,976.16 0,0 0,0 0,0 0,0 0,0 0,0 0,0 0,0 0,0 0,0 0,0 0,0 0,0 0,0 0,0 0,0 0,0 0,0 0,0 z m 0,0 0,0 0,0 0,0 0,0 0,0 0,0 0,0 0,0 0,0 0,0 z m 0,0 0,0 0,0 0,0 0,0 0,0 0,0 z m 0,0 0,0 0,0 0,0 0,0 z m 0,0 0,0 0,0 0,0 0,0" />
    </clipPath>
    <clipPath
       id="clipPath8132"
       clipPathUnits="userSpaceOnUse">
      <path
         inkscape:connector-curvature="0"
         id="path8134"
         d="M 642.09,976.16 C 559.984,841.824 493.25,794.207 385.73,664.246 281.301,538.121 330.367,411.367 451.922,411.367 c 121.551,0 255.965,126.754 236.535,252.879 -20.055,129.961 -54.734,177.578 -46.367,311.914" />
    </clipPath>
    <clipPath
       id="clipPath8312"
       clipPathUnits="userSpaceOnUse">
      <path
         inkscape:connector-curvature="0"
         id="path8314"
         d="m 622.109,916.813 0,0 0,0 0,0 0,0 0,0 0,0 0,0 0,0 0,0 0,0 0,0 0,0 0,0 0,0 0,0 0,0 0,0 0,0 0,0 z m 0,0 0,0 0,0 0,0 0,0 0,0 0,0 0,0 0,0 0,0 0,0 z m 0,0 0,0 0,0 0,0 0,0 0,0 0,0 z m 0,0 0,0 0,0 0,0 0,0 z m 0,0 0,0 0,0 0,0 0,0" />
    </clipPath>
    <clipPath
       id="clipPath8432"
       clipPathUnits="userSpaceOnUse">
      <path
         inkscape:connector-curvature="0"
         id="path8434"
         d="m 622.109,916.813 c -43.668,-68.805 -80.031,-93.208 -137.855,-159.907 -56.18,-64.664 -27.129,-129.644 40.351,-129.644 67.481,0 140.317,64.98 127.692,129.644 -12.981,66.699 -32.922,91.102 -30.188,159.907" />
    </clipPath>
    <clipPath
       id="clipPath8552"
       clipPathUnits="userSpaceOnUse">
      <path
         inkscape:connector-curvature="0"
         id="path8554"
         d="m 1122.82,976.16 0,0 0,0 0,0 0,0 0,0 0,0 0,0 0.04,0 0,0 -0.04,0 0,0 0,0 0,0 0,0 0,0 0,0 0,0 0,0 0,0 z m 0,0 0,0 0,0 0,0 0,0 0,0 0,0 0,0 0,0 0,0 0,0 z m 0,0 0,0 0,0 0,0 0,0 0,0 0,0 z m 0,0 0,0 0,0 0,0 0,0 z m 0,0 0,0 0,0 0,0 0,0" />
    </clipPath>
    <clipPath
       id="clipPath8732"
       clipPathUnits="userSpaceOnUse">
      <path
         inkscape:connector-curvature="0"
         id="path8734"
         d="M 1122.82,976.16 C 1040.72,841.824 973.98,794.207 866.469,664.246 762.074,538.121 811.105,411.367 932.656,411.367 c 121.554,0 255.974,126.754 236.544,252.879 -20.06,129.961 -54.74,177.578 -46.38,311.914" />
    </clipPath>
    <clipPath
       id="clipPath8912"
       clipPathUnits="userSpaceOnUse">
      <path
         inkscape:connector-curvature="0"
         id="path8914"
         d="m 1102.85,916.813 0,0 0,0 0,0 0,0 0,0 0,0 0,0 0,0 0,0 0,0.078 0,0 0,-0.078 0,0.078 0,0 0,0 0,-0.078 0,0 0,0 0,0 z m 0,0 0,0 0,0 0,0 0,0 0,0 0,0 0,0 0,0 0,0 0,0 z m 0,0 0,0 0,0 0,0 0,0 0,0 0,0 z m 0,0 0,0 0,0 0,0 0,0 z m 0,0 0,0 0,0 0,0 0,0" />
    </clipPath>
    <clipPath
       id="clipPath9032"
       clipPathUnits="userSpaceOnUse">
      <path
         inkscape:connector-curvature="0"
         id="path9034"
         d="m 1102.85,916.813 c -43.64,-68.805 -80.03,-93.282 -137.862,-159.907 -56.14,-64.664 -27.09,-129.644 40.352,-129.644 67.48,0 140.32,64.98 127.73,129.644 -13.02,66.625 -32.92,91.102 -30.22,159.907" />
    </clipPath>
    <clipPath
       id="clipPath9152"
       clipPathUnits="userSpaceOnUse">
      <path
         inkscape:connector-curvature="0"
         id="path9154"
         d="m 1603.6,976.203 0,0 0,0 0,0 0,0 0,0 0,0 0,0 0,0 0,0 0,0 0,0 0,0 0,0 0,0 0,0 0,0 0,0 0,0 0,0 z m 0,0 0,0 0,0 0,0 0,0 0,0 0,0 0,0 0,0 0,0 0,0 z m 0,0 0,0 0,0 0,0 0,0 0,0 0,0 z m 0,0 0,0 0,0 0,0 0,0 z m 0,0 0,0 0,0 0,0 0,0" />
    </clipPath>
    <clipPath
       id="clipPath9332"
       clipPathUnits="userSpaceOnUse">
      <path
         inkscape:connector-curvature="0"
         id="path9334"
         d="m 1603.6,976.203 c -82.15,-134.34 -148.85,-181.961 -256.4,-311.918 -104.39,-126.164 -55.32,-252.957 66.23,-252.957 121.52,0 255.97,126.793 236.53,252.957 -20.05,129.957 -54.73,177.578 -46.36,311.918" />
    </clipPath>
    <clipPath
       id="clipPath9512"
       clipPathUnits="userSpaceOnUse">
      <path
         inkscape:connector-curvature="0"
         id="path9514"
         d="m 1583.62,916.855 0,0 0,0 0,0 0,0 0,0 0,0 0,0 0,0 0,0 0,0.036 0,0 0,-0.036 0,0.036 0,0 0,0 0,-0.036 0,0 0,0 0,0 z m 0,0 0,0 0,0 0,0 0,0 0,0 0,0 0,0 0,0 0,0 0,0 z m 0,0 0,0 0,0 0,0 0,0 0,0 0,0 z m 0,0 0,0 0,0 0,0 0,0 z m 0,0 0,0 0,0 0,0 0,0" />
    </clipPath>
    <clipPath
       id="clipPath9632"
       clipPathUnits="userSpaceOnUse">
      <path
         inkscape:connector-curvature="0"
         id="path9634"
         d="m 1583.62,916.855 c -43.67,-68.847 -80.03,-93.285 -137.89,-159.91 -56.14,-64.703 -27.1,-129.683 40.38,-129.683 67.49,0 140.28,64.98 127.69,129.683 -12.98,66.625 -32.91,91.063 -30.18,159.91" />
    </clipPath>
    <clipPath
       id="clipPath9752"
       clipPathUnits="userSpaceOnUse">
      <path
         inkscape:connector-curvature="0"
         id="path9754"
         d="m 6261.87,1294.92 c 201.97,0 365.75,163.78 365.75,365.75 0,151.11 -91.57,280.76 -222.22,336.55 -16.94,354.99 -310.01,637.71 -669.22,637.71 -249.48,0 -466.86,-136.41 -582.23,-338.58 -75.11,40.54 -161.13,63.57 -252.49,63.57 -224.58,0 -416.58,-139.07 -494.81,-335.76 -182.94,-20.18 -325.29,-175.16 -325.29,-363.49 0,-201.97 163.82,-365.75 365.79,-365.75 l 1814.72,0" />
    </clipPath>
    <clipPath
       id="clipPath10124"
       clipPathUnits="userSpaceOnUse">
      <path
         inkscape:connector-curvature="0"
         id="path10126"
         d="m 6342.02,1975.33 c -3.59,331.93 -273.68,599.94 -606.47,599.94 -244.98,0 -455.87,-145.25 -551.66,-354.26 -76.98,52.97 -170.23,84.02 -270.78,84.02 -209.06,0 -386.75,-134.1 -451.88,-320.95 -3.37,0.12 -6.73,0.24 -10.09,0.24 -180.51,0 -326.73,-146.23 -326.73,-326.66 0,-4.14 0.11,-8.29 0.27,-12.39 6.53,160.8 148.14,289.51 322.74,291.35 1.18,0 2.47,0.08 3.72,0.08 10.09,0 20.06,-0.51 30.02,-1.33 5.63,15.48 12.09,30.57 19.44,45.23 75.18,149.82 236.3,253.43 422.95,253.43 87.81,0 169.91,-22.96 240.13,-62.83 15.45,-8.72 30.26,-18.29 44.45,-28.62 6.03,15.01 12.67,29.72 19.91,44.06 93.75,185.67 285.75,312.97 507.51,312.97 296.27,0 539.58,-227.18 566.13,-517.29 1.4,-15.75 2.22,-31.67 2.37,-47.74 12.4,-1.37 24.64,-3.36 36.64,-5.97 140.47,-30.54 245.96,-145.06 251.51,-283.34 0.12,4.1 0.27,8.25 0.27,12.39 0,154.16 -106.81,283.3 -250.45,317.67" />
    </clipPath>
    <clipPath
       id="clipPath10160"
       clipPathUnits="userSpaceOnUse">
      <path
         inkscape:connector-curvature="0"
         id="path10162"
         d="m 5687.89,1222.13 c 32.02,40.03 16.31,72.79 -34.99,72.79 l -468.15,0 c -51.29,0 -111.07,-38 -132.93,-84.41 L 4925.15,940.668 c -21.81,-46.453 -1.95,-102.945 44.1,-125.539 l 200.61,-98.531 c 46.13,-22.594 68.57,-80.184 49.96,-127.996 L 5020.89,76.9766 c -18.6,-47.8164 -4.02,-57.3516 32.34,-21.1914 L 5746.5,744.281 c 36.36,36.125 27.64,82.453 -19.36,102.903 l -166.19,72.293 c -47,20.445 -59.28,69.945 -27.22,109.973 l 154.16,192.68" />
    </clipPath>
    <clipPath
       id="clipPath10470"
       clipPathUnits="userSpaceOnUse">
      <path
         inkscape:connector-curvature="0"
         id="path10472"
         d="m 9988.34,1302.18 c 200.86,0 363.76,162.87 363.76,363.77 0,150.26 -91.1,279.22 -221,334.71 -16.8,353.14 -308.32,634.27 -665.61,634.27 -248.09,0 -464.36,-135.67 -579.05,-336.76 -74.73,40.34 -160.24,63.25 -251.14,63.25 -223.37,0 -414.3,-138.31 -492.15,-333.93 -181.91,-20.06 -323.48,-174.2 -323.48,-361.54 0,-200.9 162.88,-363.77 363.78,-363.77 l 1804.89,0" />
    </clipPath>
    <clipPath
       id="clipPath10842"
       clipPathUnits="userSpaceOnUse">
      <path
         inkscape:connector-curvature="0"
         id="path10844"
         d="m 10068,1978.88 c -3.5,330.18 -272.14,596.72 -603.13,596.72 -243.62,0 -453.36,-144.47 -548.62,-352.34 -76.6,52.65 -169.37,83.6 -269.36,83.6 -207.94,0 -384.64,-133.43 -449.43,-319.26 -3.38,0.11 -6.72,0.26 -10.05,0.26 -179.49,0 -324.98,-145.47 -324.98,-324.91 0,-4.11 0.18,-8.18 0.32,-12.29 6.46,159.91 147.3,287.95 320.96,289.75 1.2,0 2.41,0.07 3.7,0.07 10.05,0 19.98,-0.48 29.84,-1.32 5.62,15.4 12.03,30.43 19.37,44.99 74.72,149.02 235,252.01 420.68,252.01 87.31,0 168.97,-22.8 238.82,-62.44 15.33,-8.68 30.06,-18.22 44.15,-28.49 6.01,14.96 12.64,29.59 19.87,43.89 93.21,184.62 284.17,311.27 504.73,311.27 294.69,0 536.63,-225.98 563.03,-514.48 1.4,-15.73 2.2,-31.56 2.4,-47.56 12.3,-1.32 24.5,-3.34 36.5,-5.94 139.6,-30.36 244.5,-144.25 250.1,-281.75 0.1,4.11 0.3,8.18 0.3,12.29 0,153.34 -106.3,281.78 -249.2,315.93" />
    </clipPath>
    <clipPath
       id="clipPath10878"
       clipPathUnits="userSpaceOnUse">
      <path
         inkscape:connector-curvature="0"
         id="path10880"
         d="m 8638.05,1307.05 c 164.24,-170.02 175.97,-369.464 93.87,-486.722 -82.13,-117.305 -447.45,-398.39 -158.33,-815.23425 17.57,263.90225 84.48,431.98025 369.46,527.83225 322.6,108.5 750.66,435.758 633.4,770.054 -164.2,5.9 -938.4,4.07 -938.4,4.07" />
    </clipPath>
    <clipPath
       id="clipPath11094"
       clipPathUnits="userSpaceOnUse">
      <path
         inkscape:connector-curvature="0"
         id="path11096"
         d="m 8617.77,0 c 2.32,81.0352 68.9,146.266 150.49,146.266 l 0,-30.946 c -4.7,0 -9.35,-0.367 -13.9,-0.922 C 8688.65,108.535 8634.61,61.8906 8617.77,0" />
    </clipPath>
    <clipPath
       id="clipPath11506"
       clipPathUnits="userSpaceOnUse">
      <path
         inkscape:connector-curvature="0"
         id="path11508"
         d="m 8512.21,0 c -2.28,81.0352 -68.9,146.266 -150.45,146.266 l 0,-30.946 c 4.66,0 9.35,-0.367 13.86,-0.922 C 8441.34,108.535 8495.38,61.8906 8512.21,0" />
    </clipPath>
    <clipPath
       id="clipPath11920"
       clipPathUnits="userSpaceOnUse">
      <path
         inkscape:connector-curvature="0"
         id="path11922"
         d="m 12695.6,11687 c -0.1,0 -0.1,0 -0.1,0 l -129.3,0 c -253,-85.7 -448.8,-668.1 -448.8,-1373.7 0,-123.7 6.1,-243.6 17.3,-357.74 l 104.7,0 c -11.9,114.14 -18.3,234.04 -18.3,357.74 0,705.6 206.9,1287.8 474.5,1373.7" />
    </clipPath>
    <clipPath
       id="clipPath12230"
       clipPathUnits="userSpaceOnUse">
      <path
         inkscape:connector-curvature="0"
         id="path12232"
         d="m 12756.8,11655.9 c -20,13.5 -40.4,24 -61.2,31.1 -267.6,-85.9 -474.5,-668.1 -474.5,-1373.7 0,-123.7 6.4,-243.6 18.3,-357.74 l 104.6,0 c -12.5,114.14 -19.2,234.04 -19.2,357.74 0,647.5 183.7,1191.1 432,1342.6" />
    </clipPath>
    <clipPath
       id="clipPath12400"
       clipPathUnits="userSpaceOnUse">
      <path
         inkscape:connector-curvature="0"
         id="path12402"
         d="m 12814.8,11606.3 c -18.8,19.5 -38.2,36.1 -58,49.6 -248.3,-151.5 -432,-695.1 -432,-1342.6 0,-123.7 6.7,-243.6 19.2,-357.74 l 104.8,0 c -13.2,114.14 -20.4,234.04 -20.4,357.74 0,589.8 160.4,1093.5 386.4,1293" />
    </clipPath>
    <clipPath
       id="clipPath12670"
       clipPathUnits="userSpaceOnUse">
      <path
         inkscape:connector-curvature="0"
         id="path12672"
         d="m 12869.8,11539.1 c -17.8,25.2 -36.1,47.7 -55,67.2 -226,-199.5 -386.4,-703.2 -386.4,-1293 0,-123.7 7.2,-243.6 20.4,-357.74 l 104.7,0 c -13.9,114.14 -21.4,234.04 -21.4,357.74 0,532.1 136.9,993.9 337.7,1225.8" />
    </clipPath>
    <clipPath
       id="clipPath13178"
       clipPathUnits="userSpaceOnUse">
      <path
         inkscape:connector-curvature="0"
         id="path13180"
         d="m 12922,11453.8 c -16.7,31.1 -34.2,59.6 -52.2,85.3 -200.8,-231.9 -337.7,-693.7 -337.7,-1225.8 0,-123.7 7.5,-243.6 21.4,-357.74 l 104.6,0 c -14.5,114.14 -22.3,234.04 -22.3,357.74 0,473.1 113.3,890.7 286.2,1140.5" />
    </clipPath>
    <clipPath
       id="clipPath13686"
       clipPathUnits="userSpaceOnUse">
      <path
         inkscape:connector-curvature="0"
         id="path13688"
         d="m 12635.8,10313.3 c 0,-123.7 7.8,-243.6 22.3,-357.74 l 104.7,0 c -15.2,114.14 -23.3,234.04 -23.3,357.74 0,412 89.7,781.8 232.1,1035.5 -15.7,37.6 -32.3,72.7 -49.6,105 -172.9,-249.8 -286.2,-667.4 -286.2,-1140.5" />
    </clipPath>
    <clipPath
       id="clipPath14194"
       clipPathUnits="userSpaceOnUse">
      <path
         inkscape:connector-curvature="0"
         id="path14196"
         d="m 13380.7,9824.23 c 160.3,0 290.3,129.96 290.3,290.27 0,119.9 -72.7,222.9 -176.4,267.2 -13.4,281.8 -246,506.2 -531.2,506.2 -198,0 -370.5,-108.3 -462.1,-268.8 -59.7,32.2 -127.9,50.5 -200.5,50.5 -178.2,0 -330.6,-110.4 -392.7,-266.5 -145.2,-16 -258.2,-139.1 -258.2,-288.6 0,-160.31 130,-290.27 290.4,-290.27 l 1440.4,0" />
    </clipPath>
    <clipPath
       id="clipPath14448"
       clipPathUnits="userSpaceOnUse">
      <path
         inkscape:connector-curvature="0"
         id="path14450"
         d="m 13395.6,11687 -137.2,0 c 326,-85.5 578.1,-667.8 578.1,-1373.7 0,-123.7 -7.7,-243.6 -22.3,-357.74 l 161.7,0 c 15.2,114.14 23.3,234.04 23.3,357.74 0,705.6 -263.2,1288 -603.6,1373.7" />
    </clipPath>
    <clipPath
       id="clipPath15060"
       clipPathUnits="userSpaceOnUse">
      <path
         inkscape:connector-curvature="0"
         id="path15062"
         d="m 13258.4,11687 -136.7,0 c 16.2,-4.4 32.1,-10.2 47.8,-17.2 287.8,-129.1 504.3,-687.4 504.3,-1356.5 0,-123.7 -7.4,-243.6 -21.3,-357.74 l 161.7,0 c 14.6,114.14 22.3,234.04 22.3,357.74 0,705.9 -252.1,1288.2 -578.1,1373.7" />
    </clipPath>
    <clipPath
       id="clipPath15646"
       clipPathUnits="userSpaceOnUse">
      <path
         inkscape:connector-curvature="0"
         id="path15648"
         d="m 13169.5,11669.8 c -15.7,7 -31.6,12.8 -47.8,17.2 l -137.4,0 c 17.5,-5 34.7,-11.7 51.7,-20.1 20.1,-9.9 39.9,-22.1 59.2,-36.5 241.4,-180.4 415.9,-701.8 415.9,-1317.1 0,-123.7 -7.2,-243.6 -20.4,-357.74 l 161.8,0 c 13.9,114.14 21.3,234.04 21.3,357.74 0,669.1 -216.5,1227.4 -504.3,1356.5" />
    </clipPath>
    <clipPath
       id="clipPath16124"
       clipPathUnits="userSpaceOnUse">
      <path
         inkscape:connector-curvature="0"
         id="path16126"
         d="m 13095.2,11630.4 c -19.3,14.4 -39.1,26.6 -59.2,36.5 -17,8.4 -34.2,15.1 -51.7,20.1 l -137.1,0 c 18.7,-5.6 37.2,-13.3 55.3,-23.2 20,-10.9 39.6,-24.3 58.8,-40.2 19.2,-15.9 37.8,-34.1 56,-54.7 195.5,-220.2 331.1,-699.6 331.1,-1255.6 0,-123.7 -6.8,-243.6 -19.4,-357.74 l 161.7,0 c 13.2,114.14 20.4,234.04 20.4,357.74 0,615.3 -174.5,1136.7 -415.9,1317.1" />
    </clipPath>
    <clipPath
       id="clipPath16388"
       clipPathUnits="userSpaceOnUse">
      <path
         inkscape:connector-curvature="0"
         id="path16390"
         d="m 13017.3,11568.9 c -18.2,20.6 -36.8,38.8 -56,54.7 -19.2,15.9 -38.8,29.3 -58.8,40.2 -18.1,9.9 -36.6,17.6 -55.3,23.2 l -136.7,0 c 19.8,-6.3 39.4,-15.2 58.5,-26.9 19.9,-12.1 39.4,-26.9 58.4,-44.4 19,-17.6 37.5,-37.9 55.5,-60.5 18.2,-23 35.9,-48.4 52.9,-76.3 150.3,-246.2 249.8,-676.3 249.8,-1165.6 0,-123.7 -6.4,-243.6 -18.3,-357.74 l 161.7,0 c 12.6,114.14 19.4,234.04 19.4,357.74 0,556 -135.6,1035.4 -331.1,1255.6" />
    </clipPath>
    <clipPath
       id="clipPath16588"
       clipPathUnits="userSpaceOnUse">
      <path
         inkscape:connector-curvature="0"
         id="path16590"
         d="m 12935.8,11478.9 c -17,27.9 -34.7,53.3 -52.9,76.3 -18,22.6 -36.5,42.9 -55.5,60.5 -19,17.5 -38.5,32.3 -58.4,44.4 -19.1,11.7 -38.7,20.6 -58.5,26.9 l -136.3,0 c 0,0 0,0 0,0 20.8,-7.1 41.2,-17.6 61.2,-31.1 19.8,-13.5 39.2,-30.1 58,-49.6 18.9,-19.5 37.2,-42 55,-67.2 18,-25.7 35.5,-54.2 52.2,-85.3 17.4,-32.3 34,-67.4 49.7,-105 105.8,-253.7 172.6,-623.5 172.6,-1035.5 0,-123.7 -6.1,-243.6 -17.4,-357.74 l 161.8,0 c 11.9,114.14 18.3,234.04 18.3,357.74 0,489.3 -99.5,919.4 -249.8,1165.6" />
    </clipPath>
    <clipPath
       id="clipPath17188"
       clipPathUnits="userSpaceOnUse">
      <path
         inkscape:connector-curvature="0"
         id="path17190"
         d="m 14196.7,9333.57 c 160.4,0 290.3,129.96 290.3,290.29 0,119.95 -72.7,222.85 -176.4,267.15 -13.4,281.79 -246,506.19 -531.2,506.19 -197.9,0 -370.6,-108.3 -462.1,-268.8 -59.6,32.2 -127.9,50.5 -200.5,50.5 -178.2,0 -330.6,-110.4 -392.7,-266.5 -145.2,-15.99 -258.2,-139.03 -258.2,-288.54 0,-160.33 130,-290.29 290.3,-290.29 l 1440.5,0" />
    </clipPath>
    <clipPath
       id="clipPath17442"
       clipPathUnits="userSpaceOnUse">
      <path
         inkscape:connector-curvature="0"
         id="path17444"
         d="m 14030.7,1213.88 c 214.2,0 387.9,173.66 387.9,387.87 0,160.22 -97.1,297.73 -235.7,356.88 -17.9,376.54 -328.7,676.3 -709.7,676.3 -264.5,0 -495.1,-144.66 -617.4,-359.07 -79.7,43.01 -170.9,67.44 -267.8,67.44 -238.2,0 -441.7,-147.47 -524.7,-356.05 -194,-21.39 -344.9,-185.75 -344.9,-385.5 0,-214.21 173.6,-387.87 387.8,-387.87 l 1924.5,0" />
    </clipPath>
    <clipPath
       id="clipPath17814"
       clipPathUnits="userSpaceOnUse">
      <path
         inkscape:connector-curvature="0"
         id="path17816"
         d="m 14115.7,1935.41 c -3.8,352.06 -290.2,636.26 -643.1,636.26 -259.8,0 -483.4,-154.04 -585,-375.69 -81.7,56.15 -180.6,89.15 -287.2,89.15 -221.7,0 -410.1,-142.28 -479.2,-340.42 -3.6,0.12 -7.2,0.27 -10.7,0.27 -191.4,0 -346.6,-155.09 -346.6,-346.44 0,-4.37 0.2,-8.71 0.4,-13.09 6.9,170.5 157,307.03 342.2,308.94 1.3,0 2.6,0.08 4,0.08 10.7,0 21.3,-0.51 31.8,-1.41 6,16.42 12.8,32.45 20.6,47.98 79.7,158.88 250.6,268.71 448.6,268.71 93.1,0 180.1,-24.32 254.6,-66.59 16.4,-9.26 32.1,-19.43 47.1,-30.37 6.4,15.95 13.5,31.55 21.2,46.8 99.4,196.85 303,331.89 538.2,331.89 314.2,0 572.2,-240.95 600.3,-548.57 1.5,-16.77 2.4,-33.66 2.5,-50.71 13.2,-1.4 26.2,-3.56 38.9,-6.33 148.9,-32.37 260.8,-153.81 266.7,-300.42 0.2,4.38 0.3,8.72 0.3,13.09 0,163.51 -113.3,300.47 -265.6,336.87" />
    </clipPath>
    <clipPath
       id="clipPath17850"
       clipPathUnits="userSpaceOnUse">
      <path
         inkscape:connector-curvature="0"
         id="path17852"
         d="m 13478.5,718.754 61.6,-39.766 61.6,39.766 0,191.805 106.9,-60.286 54.9,27.407 0,71.234 -159,90.466 0,125.97 112.3,-68.49 0,126.04 117.3,-66.77 -0.1,-181.88 56.2,-31.512 56.8,31.512 0,119.91 159,-90.43 68.4,31.47 0,75.41 -161.6,95.91 101.5,56.81 -0.1,65.1 -52.1,36.95 -161.7,-90.4 -115,60.29 111.5,64.39 -108.4,67.13 111.9,71.24 161.7,-95.87 54.8,30.1 0,68.5 -105.5,58.96 168.5,95.87 0,71.23 -60.3,36.98 -172.6,-93.12 0,126 -58.2,26.08 -56.2,-26.08 0,-197.28 -115.8,-62.98 0,136.99 -112.3,-68.5 0,126.05 164.4,93.17 0,60.25 -56.2,36.99 -111,-61.62 0,191.8 -61.6,39.73 -61.6,-39.73 0,-191.8 -106.9,60.29 -54.8,-31.56 0,-67.12 158.9,-90.4 0,-126.05 -117.9,63.58 0.1,-130.74 -112.3,64.43 0.1,184.73 -61.6,35.66 -50.9,-34.05 0,-123.32 -167.6,96.81 -65.3,-33.78 0,-76.71 169.7,-92.19 -106.7,-59.9 0,-69.9 59.2,-29.4 157.7,92.42 109.2,-63.02 -108.4,-67.13 111.6,-64.44 2.6,-1.75 -109.1,-63.03 -157.8,92.43 -62.3,-33.78 0,-70.53 109.9,-54.9 -175.6,-95.79 0,-76.78 71.1,-30.1 167.2,94.54 0.1,-121.368 51.3,-33.699 60.4,37.223 0.1,181.214 110.1,63.34 0,-133.6 115.1,73.97 0,-125.97 -158.9,-90.466 0,-67.094 54.8,-31.547 106.9,60.286 0,-191.805 z m -43.9,682.276 54.8,90.43 106.9,0 52.1,-90.43 -49.4,-84.96 -106.9,0 -57.5,84.96" />
    </clipPath>
  </defs>
  <sodipodi:namedview
     id="base"
     pagecolor="#ffffff"
     bordercolor="#666666"
     borderopacity="1.0"
     inkscape:pageopacity="0.0"
     inkscape:pageshadow="2"
     inkscape:zoom="0.09051174"
     inkscape:cx="2227.5599"
     inkscape:cy="1900.5438"
     inkscape:document-units="px"
     inkscape:current-layer="layer1"
     showgrid="false"
     width="1280mm"
     borderlayer="true"
     inkscape:window-width="1280"
     inkscape:window-height="996"
     inkscape:window-x="1280"
     inkscape:window-y="0"
     inkscape:window-maximized="1" />
  <metadata
     id="metadata5069">
    <rdf:RDF>
      <cc:Work
         rdf:about="">
        <dc:format>image/svg+xml</dc:format>
        <dc:type
           rdf:resource="http://purl.org/dc/dcmitype/StillImage" />
        <dc:title></dc:title>
      </cc:Work>
    </rdf:RDF>
  </metadata>
  <g
     inkscape:label="Capa 1"
     inkscape:groupmode="layer"
     id="layer1"
     transform="translate(0,2575.9842)">
    <rect
       style="opacity:1;fill:#f9f9f9;fill-opacity:1;fill-rule:nonzero;stroke:none;stroke-width:4;stroke-linecap:round;stroke-linejoin:bevel;stroke-miterlimit:4;stroke-dasharray:none;stroke-opacity:1"
       id="rect5827"
       width="5214.793"
       height="4109.9639"
       x="-360.5936"
       y="-2847.6843" />
    <path
       style="opacity:0.42399998;fill:url(#linearGradient5764);fill-opacity:1;fill-rule:nonzero;stroke:none"
       d="m 2419.7027,4577.1453 c -38.9029,-6.5028 -79.6933,0.2617 -113.2966,23.0072 -57.9387,39.2317 -79.3292,113.3238 -93.0983,180.0732 -16.9595,82.3526 -29.8563,162.6615 -53.0271,243.7518 -52.6452,184.3452 -129.9828,365.3727 -197.3851,546.3452 -34.7674,93.311 -67.3361,187.6617 -93.0254,284.301 -25.2408,95.0977 -33.3525,197.3457 -70.3963,288.3739 -7.2323,17.746 -16.116,36.1095 -32.1532,45.8202 -19.9356,12.0444 -46.8826,7.1436 -65.8468,-7.5978 -77.2594,-58.9441 -20.798,-168.2761 -5.1432,-242.133 30.0001,-141.5227 37.1676,-284.1748 50.9632,-428.1237 18.5473,-189.665 43.4699,-379.8821 62.8354,-568.0667 11.8727,-116.0714 1.7377,-279.6905 -135.8828,-309.0817 -128.9978,-27.5663 -193.1048,106.8779 -220.6033,213.33 -38.5373,149.3041 -30.4967,312.8557 -55.3128,466.9851 -26.5493,164.9218 -44.3926,331.3392 -69.542,496.0079 -24.0224,157.5173 -91.0792,307.0785 -120.3288,464.3536 -31.7772,170.8142 -23.2528,344.9358 -151.7045,476.5746 -42.4782,43.5477 -98.32032,76.8103 -158.88434,77.6725 -169.21761,2.3776 -308.76893,-182.9171 -383.03422,-321.5454 -75.96577,-141.8263 -168.48252,-275.6291 -291.34217,-378.7068 -71.05303,-59.6253 -151.761192,-119.393 -241.569092,-142.0566 -81.25533,-20.5086 -192.797138,1.1768 -226.543338,89.3216 -42.2179,110.2565 79.13416,241.1923 146.940508,314.1976 280.203752,301.5291 463.939842,693.4881 463.939842,693.4881 0,0 266.17689,757.0222 400.53412,975.7348 74.07213,120.5604 194.62116,209.6384 240.20799,346.5412 69.1326,207.6728 32.9645,473.3686 40.2129,691.8272 4.7318,142.495 9.4956,284.9825 14.2727,427.4493 7.1974,214.5293 14.434,429.0543 21.6848,643.5784 l 1213.7303,205.089 c -17.0323,-267.043 -34.0592,-534.0781 -51.0824,-801.1416 -14.1035,-221.5095 -28.2396,-442.9995 -42.3638,-664.5115 -10.8379,-170.2068 -39.7969,-347.2329 3.7955,-513.7368 43.3451,-165.4625 185.1013,-264.89 256.9296,-416.4775 55.8086,-117.7383 76.6869,-248.9915 102.3554,-376.8333 25.9779,-129.3671 63.6789,-243.2335 123.2504,-359.0965 108.7857,-211.6337 227.3788,-437.5205 411.5007,-589.286 134.0907,-110.5305 282.2145,-225.7631 380.5902,-373.2509 27.6747,-41.4999 60.4693,-96.9937 50.7193,-150.824 -18.4189,-101.6733 -136.0873,-119.4377 -210.4312,-82.645 -101.6,50.2748 -181.9434,149.2113 -258.0768,231.6585 -173.8156,188.1938 -450.9455,547.3101 -560.4902,443.2356 -51.7072,-49.1186 -2.6814,-161.1441 16.9525,-212.0761 39.0135,-99.2399 89.5185,-197.3392 148.122,-285.0836 139.7661,-209.3047 285.9593,-420.541 406.7694,-642.5673 51.5743,-94.7228 231.8375,-413.6004 80.1832,-501.8024 -154.3234,-89.7329 -324.8718,164.8289 -395.4196,266.8827 -54.8859,79.4183 -108.7837,163.1665 -151.9722,250.2768 -63.5428,128.1773 -142.5308,248.9828 -210.2558,375.8481 -65.535,122.7952 -126.1625,248.4821 -181.6887,376.6348 -8.6967,20.0109 -19.0291,41.9187 -38.9714,49.5521 -79.3696,30.3074 -9.4144,-215.4451 -1.3477,-243.3888 50.3476,-174.2722 127.7282,-337.5551 182.2055,-510.2701 69.6862,-220.9698 133.8232,-448.877 182.0974,-676.1159 18.4189,-86.6815 36.6847,-186.0143 13.2465,-274.5232 -17.0374,-64.3972 -73.1311,-106.8255 -133.8202,-116.9698 z"
       id="path476-2-1"
       inkscape:connector-curvature="0" />
    <path
       style="opacity:0.42399998;fill:url(#linearGradient5764-7);fill-opacity:1;fill-rule:nonzero;stroke:none"
       d="m 1739.8035,-2682.6416 c -26.7462,-14.3523 -58.1464,-19.5016 -88.2574,-11.2277 -51.9208,14.2759 -85.8188,62.9897 -112.3478,108.2352 -32.7098,55.8292 -61.9537,111.1726 -98.8784,164.5469 -83.9206,121.3448 -185.0175,234.1702 -278.86,349.4104 -48.3964,59.4154 -95.4471,120.1318 -138.0496,184.2161 -41.89457,63.0716 -73.07217,135.5871 -122.56347,192.7762 -9.656,11.1464 -20.6683,22.3348 -34.756,25.4493 -17.5055,3.852 -35.9339,-6.3784 -46.1127,-21.8083 -41.7426,-62.0502 26.4234,-127.7813 56.0831,-177.741 56.8349,-95.7308 97.3083,-197.9267 142.93267,-299.4298 60.3842,-133.6476 125.551,-266.1223 186.1656,-398.4888 37.3344,-81.6608 70.3785,-203.4133 -22.6587,-258.8402 -87.2038,-51.9663 -167.1474,30.1777 -213.49307,100.9666 -64.9799,99.2924 -99.5336,220.4781 -155.7056,326.6778 -60.102,113.6372 -114.2284,230.5155 -173.24774,344.3141 -56.4306,108.865 -142.2594,201.2976 -202.4399,308.6943 -65.3682,116.6398 -102.1812,245.6486 -228.3268,309.8483 -41.7195,21.2418 -90.6373,31.6854 -134.990302,17.3483 -123.9159,-40.0811 -179.836398,-209.61 -199.706798,-328.9954 -20.3194,-122.1365 -54.6841,-242.5149 -118.7554,-347.9983 -37.051,-61.0132 -81.1036,-124.5159 -140.9567,-163.2251 -54.1524,-35.0253 -140.8042,-46.7828 -187.1798,9.1197 -58.0135,69.9244 -1.9248,195.3387 29.4538,265.3011 129.7083,288.9977 166.7642,620.0647 166.7642,620.0647 0,0 6.9323,617.50186 50.8096,810.10276 24.1942,106.1695 90.0408,200.8787 89.4363,311.9201 -0.9314,168.437904 -92.9451,353.1437 -141.6439,514.1507 -31.7621,105.0217 -63.4991,210.0459 -95.2212,315.0583 -47.765,158.1306 -95.5004,316.2679 -143.2251,474.40804 l 833.907,449.3865 c 53.5733,-198.8337 107.1486,-397.6601 160.7336,-596.50644 44.4567,-164.9244 88.8845,-329.8429 133.3266,-494.7742 34.1596,-126.7273 56.7972,-262.9024 129.7114,-373.481196 72.47674,-109.8809 200.35944,-147.317004 290.16654,-240.047304 69.76737,-72.0191 117.41667,-162.5193 167.71417,-249.3496 50.9,-87.8654 106.5136,-161.5369 178.5601,-231.2594 131.5797,-127.3607 273.829,-262.6858 445.5213,-327.79796 125.0396,-47.4223 261.4685,-94.8038 369.6107,-177.9864 30.4244,-23.4072 68.0384,-55.7483 74.2338,-97.3899 11.6997,-78.6523 -69.6691,-120.6754 -132.9436,-112.2308 -86.4705,11.5355 -169.4734,63.7889 -245.3334,105.0649 -173.1824,94.2084 -463.897,287.45846 -518.0178,184.5387 -25.5477,-48.5753 37.8647,-118.1068 64.7596,-150.3752 52.9559,-62.6873 114.0052,-121.7037 178.3981,-171.1719 153.5831,-118.008 312.3278,-235.8356 455.239,-367.7993 60.9943,-56.2913 271.168,-244.1507 182.4349,-345.9077 -90.3001,-103.5322 -277.5009,39.8534 -354.1348,96.7993 -59.6261,44.3189 -119.6019,92.0376 -172.6034,144.8529 -77.9838,77.716 -165.4026,146.2428 -246.1103,221.9692 -78.1058,73.3011 -153.3494,149.9224 -225.4845,229.6014 -11.283,12.4352 -24.2268,25.8489 -40.6473,26.4844 -65.3348,2.4761 46.3755,-159.3459 59.1595,-177.7184 79.7571,-114.5712 176.5007,-214.4533 258.8826,-326.8691 105.3904,-143.8266 208.4507,-294.0804 299.7847,-447.7668 34.8432,-58.6235 72.7008,-126.5052 77.4894,-196.8034 3.4955,-51.1436 -26.9023,-95.9269 -68.6267,-118.3166 z"
       id="path476-2-1-3"
       inkscape:connector-curvature="0" />
    <path
       style="opacity:0.42399998;fill:url(#linearGradient5764-7-6);fill-opacity:1;fill-rule:nonzero;stroke:none"
       d="m 2234.9104,-3608.8802 c -31.8724,22.848 -55.7211,56.333 -63.2681,95.965 -13.0031,68.343 24.1941,135.3902 61.5644,191.9165 46.126,69.7201 93.6617,135.1442 134.5409,208.3549 92.9526,166.4115 166.2462,347.8932 246.4702,522.3363 41.3543,89.9544 84.9836,179.0888 135.0513,264.9818 49.2963,84.4956 115.6465,161.9385 153.7955,251.8954 7.4299,17.5444 14.1362,36.6858 9.7277,54.7972 -5.4989,22.4952 -27.8553,38.0433 -51.5452,41.0636 -95.7281,13.0849 -133.1518,-103.3931 -174.207,-166.2343 -78.6672,-120.4162 -174.1471,-225.5378 -265.8912,-336.2388 -120.6206,-146.1192 -237.1583,-297.1174 -356.162,-442.7746 -73.4514,-89.7899 -195.8419,-197.4292 -313.0918,-121.0844 -109.9151,71.5496 -60.1616,211.031 -4.4492,305.0824 78.1606,131.8901 199.0343,240.9574 290.2202,366.565 97.5743,134.3996 202.3093,263.7142 300.6871,396.9502 94.1298,127.4249 152.465,279.589 242.757,410.5269 98.0584,142.2167 226.7188,258.3582 229.3574,441.2066 0.8836,60.4779 -14.8543,123.1563 -56.7329,166.43258 -117.0322,120.8933 -345.4812,89.2312 -495.2518,44.3075 -153.2168,-45.9694 -312.3911,-74.6486 -471.2031,-60.3953 -91.8544,8.234 -190.5821,23.1709 -269.551,70.548 -71.4508,42.863 -134.4193,136.6642 -95.9887,222.2751 48.067,107.0909 225.4495,113.4426 324.4533,116.8821 409.0127,14.1022 814.0664,159.6097 814.0664,159.6097 0,0 720.0985,343.516897 968.449,402.2813965 136.905,32.3851005 284.2324,9.939 412.6693,73.8581005 194.8166,96.975503 356.645,308.845803 515.6487,456.989203 103.7168,96.6273 207.4508,193.2268 311.1795,289.8025 156.1995,145.4228 312.4235,290.81522 468.6569,436.19652 L 6232.802,543.93288 C 6032.704,368.60068 5832.6155,193.27048 5632.5092,17.917577 5466.5472,-127.53622 5300.5757,-272.95312 5134.5972,-418.39392 c -127.525,-111.7653 -272.5668,-215.5467 -359.2998,-363.0642 -86.1727,-146.6128 -56.7831,-316.23868 -113.1987,-473.18628 -43.8046,-121.9151 -121.635,-228.7004 -193.7016,-336.4675 -72.924,-109.0552 -126.7032,-215.4962 -166.5467,-338.747 -72.7964,-225.1095 -148.7551,-467.1274 -126.5214,-703.3184 16.1894,-172.0139 38.91,-357.2135 4.006,-529.9897 -9.8253,-48.6111 -25.9186,-110.6466 -70.6855,-141.5392 -84.5567,-58.3471 -179.6183,12.0962 -205.8481,90.2869 -35.8511,106.8521 -22.5051,232.8641 -17.8236,344.3427 10.6624,254.4842 69.2758,701.6635 -80.8982,705.8361 -70.8805,1.9742 -115.4179,-111.1544 -137.5296,-160.717 -42.5533,-97.1052 -76.2412,-201.5067 -96.9521,-304.3501 -49.4226,-245.3033 -95.6972,-496.4903 -167.3807,-737.3621 -30.5588,-102.7863 -128.7738,-453.4888 -297.3048,-408.5125 -171.4818,45.7831 -111.7667,344.5228 -89.3526,465.82 17.4529,94.3834 38.6494,191.1081 69.7274,282.6458 45.7339,134.6874 75.439,275.0856 117.3147,411.7996 40.5441,132.3155 86.5684,263.2019 137.9087,392.2239 7.9981,20.1652 16.1856,42.8135 7.574,62.219 -34.3246,77.1821 -158.3998,-144.5032 -172.4292,-169.7893 -87.4673,-157.7267 -148.2281,-326.7905 -231.7014,-486.3341 -106.803,-204.1105 -222.3864,-409.1782 -348.6268,-602.6001 -48.152,-73.7852 -105.3253,-156.3373 -184.1278,-201.9131 -57.324,-33.1709 -126.5679,-23.4131 -176.289,12.2302 z"
       id="path476-2-1-3-2"
       inkscape:connector-curvature="0" />
    <path
       style="opacity:0.42399998;fill:url(#linearGradient5764-7-61);fill-opacity:1;fill-rule:nonzero;stroke:none"
       d="m 3720.916,2701.6403 c 50.4361,-29.9206 90.2937,-76.7251 106.6585,-134.7941 28.2036,-100.1379 -18.5489,-204.8323 -66.9193,-293.875 -59.7092,-109.8305 -122.0748,-213.4426 -173.5164,-327.7951 -116.9777,-259.9335 -202.7196,-539.778 -299.6961,-810.0321 -49.9864,-139.35912 -103.4672,-277.79072 -166.9594,-412.22512 -62.5238,-132.2525 -151.3661,-256.2019 -196.5764,-395.15032 -8.8016,-27.09785 -16.3194,-56.48155 -7.4109,-82.89464 11.0993,-32.80284 46.4155,-53.07774 82.099,-54.51617 144.3074,-7.12354 185.0104,171.24263 238.0547,270.16953 101.6381,189.5627 230.3011,358.5123 352.6779,535.2913 160.82,233.27702 314.9269,473.29522 473.3971,705.67492 97.8267,143.2619 266.2554,319.4397 450.801,220.8516 172.9985,-92.392 116.9001,-306.6223 46.0528,-453.9402 -99.402,-206.5915 -265.3872,-384.701 -385.0053,-583.61592 C 4046.5738,671.95008 3907.248,465.76148 3777.9005,254.55235 3654.132,52.549686 3586.8861,-181.68466 3469.2883,-388.42524 c -127.7107,-224.54731 -304.3824,-414.20209 -284.6851,-686.95266 6.4982,-90.2148 38.0446,-181.5601 106.028,-240.6219 189.9778,-164.9853 526.2322,-88.2937 743.5568,-2.0122 222.3241,88.2848 455.7579,151.5803 694.1999,150.868 137.9095,-0.3977 286.9259,-9.8931 410.6963,-70.2713 111.9876,-54.6249 217.92,-186.2339 171.728,-318.7441 -57.7722,-165.7567 -321.2178,-198.1412 -468.2707,-216.059 -607.5292,-73.8635 -1192.1802,-342.9843 -1192.1802,-342.9843 0,0 -1028.4207,-604.8281 -1390.8221,-724.4692 -199.7778,-65.9388 -422.1684,-51.5363 -605.2553,-163.3609 -277.709,-169.6498 -491.4243,-506.2084 -709.16621,-747.4609 -142.03227,-157.359 -284.09324,-314.6793 -426.14986,-471.9628 -213.91581,-236.837 -427.872238,-473.6316 -641.84372,-710.4116 l -1575.67601,930.9811 c 275.452,287.0692 550.8898,574.1343 826.35072,861.2351 228.45642,238.1449 456.93154,476.236 685.41385,714.3636 175.545732,182.9883 378.21962,356.3458 488.37277,587.3268 109.43526,229.5608 43.73084,478.4736 107.49829,719.5864 49.50635,187.29105 151.65988,356.43833 245.09977,526.30369 94.55067,171.89502 160.91679,337.4214 204.34909,526.190816 79.3638,344.777554 161.25381,715.154174 97.6085,1064.161274 -46.347,254.17642 -104.1287,527.15282 -74.455,789.06712 8.3563,73.691 24.316,168.1919 87.0184,220.0009 118.43381,97.8528 269.16021,5.1897 318.34181,-107.9101 67.219,-154.5569 63.6196,-344.0157 71.0508,-510.7026 16.9999,-380.5112 -12.5371,-1054.29843 211.733,-1041.10901 105.8536,6.21838 157.5876,180.51379 184.1249,257.20999 50.8479,150.1673 87.5458,310.0591 105.1113,465.95282 41.9316,371.8423 78.4132,752.043 154.0818,1120.1599 32.2448,157.0813 133.2478,692.2535 390.1387,647.025 261.3922,-46.0488 211.0318,-498.8313 193.3131,-682.4374 -13.805,-142.869 -32.8841,-289.7093 -67.3558,-430.0992 -50.7305,-206.5689 -76.8428,-419.5745 -121.5626,-628.6636 -43.3055,-202.36462 -94.9596,-403.30782 -154.7742,-602.16072 -9.3101,-31.0757 -18.5811,-65.87566 -3.244,-93.67342 61.1112,-110.55135 217.3127,235.75122 234.9462,275.23612 109.9285,246.2854 178.6039,506.01062 282.3466,754.48722 132.7405,317.8876 278.4387,638.3354 441.5185,942.8109 62.2028,116.1484 136.7119,246.5234 248.2243,324.6058 81.1153,56.8264 185.5358,51.2366 264.2171,4.5601 z"
       id="path476-2-1-3-9"
       inkscape:connector-curvature="0" />
  </g>
</svg>
