<?xml version="1.0" encoding="UTF-8" standalone="no"?>
<!-- Generator: Adobe Illustrator 19.0.0, SVG Export Plug-In . SVG Version: 6.00 Build 0)  -->

<svg
   xmlns:dc="http://purl.org/dc/elements/1.1/"
   xmlns:cc="http://creativecommons.org/ns#"
   xmlns:rdf="http://www.w3.org/1999/02/22-rdf-syntax-ns#"
   xmlns:svg="http://www.w3.org/2000/svg"
   xmlns="http://www.w3.org/2000/svg"
   xmlns:sodipodi="http://sodipodi.sourceforge.net/DTD/sodipodi-0.dtd"
   xmlns:inkscape="http://www.inkscape.org/namespaces/inkscape"
   version="1.1"
   id="Layer_1"
   x="0px"
   y="0px"
   viewBox="0 0 512 512"
   style="enable-background:new 0 0 512 512;"
   xml:space="preserve"
   inkscape:version="0.91 r13725"
   sodipodi:docname="trash.svg"
   inkscape:export-filename="/srv/vcs/svn/xenial/classroom-assembly/trunk/fuentes/classroom-assembly/src/css/images/icons/trash.png"
   inkscape:export-xdpi="90"
   inkscape:export-ydpi="90"><metadata
     id="metadata61"><rdf:RDF><cc:Work
         rdf:about=""><dc:format>image/svg+xml</dc:format><dc:type
           rdf:resource="http://purl.org/dc/dcmitype/StillImage" /><dc:title></dc:title></cc:Work></rdf:RDF></metadata><defs
     id="defs59"><filter
       inkscape:collect="always"
       style="color-interpolation-filters:sRGB"
       id="filter4304"
       x="-0.025784069"
       width="1.0515681"
       y="-0.022446843"
       height="1.0448937"><feGaussianBlur
         inkscape:collect="always"
         stdDeviation="4.3625392"
         id="feGaussianBlur4306" /></filter></defs><sodipodi:namedview
     pagecolor="#ffffff"
     bordercolor="#666666"
     borderopacity="1"
     objecttolerance="10"
     gridtolerance="10"
     guidetolerance="10"
     inkscape:pageopacity="0"
     inkscape:pageshadow="2"
     inkscape:window-width="1280"
     inkscape:window-height="996"
     id="namedview57"
     showgrid="false"
     showguides="false"
     inkscape:zoom="0.37046051"
     inkscape:cx="189.02761"
     inkscape:cy="342.40678"
     inkscape:window-x="1280"
     inkscape:window-y="0"
     inkscape:window-maximized="1"
     inkscape:current-layer="g3" /><g
     id="g3"><path
       style="fill:#333333;fill-opacity:1;filter:url(#filter4304)"
       d="m 201.43203,25.339998 c -4.56947,0 -8.27148,2.77664 -8.27148,6.20508 l 0,30.57227 -80.3125,0 c -15.989109,0 -28.949219,6.0666 -28.949219,13.55078 l 0,33.910152 c -9.65827,0.0736 -17.44922,5.27088 -17.44922,11.6836 l 0,23.3789 c 0,6.4586 7.9003,11.69141 17.6543,11.69141 l 5.88476,0 34.558599,287.97071 -0.0742,0 0.25586,1.5254 3.57226,29.7617 c 0.768,9.154 8.41375,16.1895 17.59375,16.1895 l 247.17191,0 c 9.181,0 16.8328,-7.0355 17.5918,-16.1895 l 38.3222,-319.25781 5.8809,0 c 9.755,0 17.6552,-5.23281 17.6562,-11.69141 l 0,-23.3789 c 0,-6.4586 -7.9003,-11.69141 -17.6543,-11.69141 l -4.2597,0 0,-33.902342 c 0,-7.48418 -12.9601,-13.55078 -28.9492,-13.55078 l -80.3106,0 0,-30.57227 c 0,-3.42844 -3.702,-6.20508 -8.2715,-6.20508 l -131.6406,0 z m 8.27344,12.41211 115.09568,0 0,24.36524 -115.09568,0 0,-24.36524 z"
       id="path5-7-7"
       inkscape:connector-curvature="0" /><path
       style="fill:#b54324;fill-opacity:1"
       d="m 439.379,146.552 -370.758,0 c -9.754,0 -17.655,-5.23164 -17.655,-11.69024 l 0,-23.38047 c 0,-6.4586 7.901,-11.69024 17.655,-11.69024 l 370.759,0 c 9.754,0 17.655,5.23164 17.655,11.69024 l 0,23.38047 c -0.001,6.4586 -7.901,11.69024 -17.656,11.69024"
       id="path5"
       inkscape:connector-curvature="0" /><path
       style="fill:#d35933;fill-opacity:1"
       d="m 74.506,146.552 38.312,319.258 c 0.768,9.154 8.413,16.19 17.593,16.19 l 247.172,0 c 9.181,0 16.834,-7.036 17.593,-16.19 l 38.321,-319.258 -358.991,0 z"
       id="path7"
       inkscape:connector-curvature="0" /><g
       id="g17"
       transform="translate(-2,-30)"><path
         style="fill:#b54324;fill-opacity:1"
         d="m 134.4707,512 243.53578,0 c 9.04594,0 17.54071,-6.66272 18.28855,-12.84778 l 3.76025,-34.39135 -289.06492,-0.23859 6.14615,36.53866 C 117.88435,507.246 125.42476,512 134.4707,512"
         id="path19"
         inkscape:connector-curvature="0"
         sodipodi:nodetypes="csccccc" /><path
         style="fill:#b54324;fill-opacity:1"
         d="m 256,397.241 c -4.873,0 -8.828,-3.946 -8.828,-8.828 l 0,-158.896 c 0,-4.882 3.955,-8.828 8.828,-8.828 4.873,0 8.828,3.946 8.828,8.828 l 0,158.897 c 0,4.881 -3.955,8.827 -8.828,8.827"
         id="path21"
         inkscape:connector-curvature="0" /><path
         style="fill:#b54324;fill-opacity:1"
         d="m 174.638,396.939 c -4.529,0 -8.386,-3.469 -8.783,-8.06 L 152.013,230.583 c -0.433,-4.855 3.16,-9.137 8.024,-9.56 4.864,-0.45 9.137,3.178 9.56,8.024 l 13.842,158.296 c 0.424,4.855 -3.169,9.137 -8.024,9.56 -0.256,0.028 -0.521,0.036 -0.777,0.036"
         id="path23"
         inkscape:connector-curvature="0" /><path
         style="fill:#b54324;fill-opacity:1"
         d="m 337.362,396.939 c -0.256,0 -0.521,-0.009 -0.777,-0.035 -4.855,-0.424 -8.448,-4.705 -8.024,-9.56 l 13.842,-158.296 c 0.424,-4.846 4.714,-8.474 9.56,-8.024 4.864,0.424 8.457,4.705 8.024,9.56 L 346.146,388.88 c -0.398,4.59 -4.255,8.059 -8.784,8.059"
         id="path25"
         inkscape:connector-curvature="0" /></g><path
       inkscape:connector-curvature="0"
       style="fill:#d35933"
       d="m 317.58868,89.11542 -131.63938,0 c -4.56947,0 -8.27205,-2.77804 -8.27205,-6.20648 l 0,-61.143267 c 0,-3.428449 3.70258,-6.206488 8.27205,-6.206488 l 131.63938,0 c 4.56945,0 8.27204,2.778039 8.27204,6.206488 l 0,61.143267 c 0,3.42844 -3.70259,6.20648 -8.27204,6.20648 z m -123.36734,-12.41297 115.09689,0 0,-48.730289 -115.09689,0 0,48.730289 0,0 z"
       id="path11" /><path
       inkscape:connector-curvature="0"
       style="fill:#d35933;fill-opacity:1"
       d="m 435.12304,100.75129 -366.70811,0 0,-34.862801 c 0,-7.484182 12.961453,-13.551184 28.95056,-13.551184 l 308.80539,0 c 15.98911,0 28.95056,6.067002 28.95056,13.551184 l 0,34.862801 z"
       id="path19-3" /><path
       style="opacity:0.57300002;fill:#b54324;fill-opacity:1"
       d="m 247.63953,15.649087 0,12.41211 62.11523,0 0,24.36524 -62.11523,0 0,429.662093 130.38086,0 c 9.181,0 16.83279,-7.03545 17.59179,-16.18945 l 38.32227,-319.25781 5.88086,0 c 9.755,0 17.65525,-5.23281 17.65625,-11.69141 l 0,-23.3789 c 0,-6.4586 -7.9003,-11.69141 -17.6543,-11.69141 l -4.25976,0 0,-33.902333 c 0,-7.48418 -12.96011,-13.55079 -28.94922,-13.55078 l -80.31055,0 0,-30.57227 c 0,-3.42844 -3.70203,-6.20508 -8.27148,-6.20508 l -70.38672,0 z"
       id="path5-7"
       inkscape:connector-curvature="0" /></g><g
     id="g27" /><g
     id="g29" /><g
     id="g31" /><g
     id="g33" /><g
     id="g35" /><g
     id="g37" /><g
     id="g39" /><g
     id="g41" /><g
     id="g43" /><g
     id="g45" /><g
     id="g47" /><g
     id="g49" /><g
     id="g51" /><g
     id="g53" /><g
     id="g55" /></svg>